<svg width="24" height="22" viewBox="0 0 24 22" fill="none" xmlns="http://www.w3.org/2000/svg">
<path d="M8.29297 14.9355L9.70697 16.2317L12 14.1298L14.293 16.2317L15.707 14.9355L13.414 12.8336L15.707 10.7317L14.293 9.43555L12 11.5375L9.70697 9.43555L8.29297 10.7317L10.586 12.8336L8.29297 14.9355Z" fill="#062540"/>
<path d="M19 3.66634H17V1.83301H15V3.66634H9V1.83301H7V3.66634H5C3.897 3.66634 3 4.48859 3 5.49967V18.333C3 19.3441 3.897 20.1663 5 20.1663H19C20.103 20.1663 21 19.3441 21 18.333V5.49967C21 4.48859 20.103 3.66634 19 3.66634ZM19.002 18.333H5V7.33301H19L19.002 18.333Z" fill="#062540"/>
</svg>
