<svg width="326" height="326" viewBox="0 0 326 326" fill="none" xmlns="http://www.w3.org/2000/svg">
<path d="M304.849 77.79C303.819 76.0513 302.732 74.3344 301.589 72.6392C286.482 50.243 260.48 34.9275 234.889 28.0359C223.665 25.0494 212.133 23.367 200.523 23.022C124.493 20.414 94.2074 80.3654 69.0793 95.8308C43.9513 111.296 5.28767 137.683 7.86307 193.096C10.4385 248.51 50.393 300.676 127.714 303.936C205.034 307.196 210.192 272.347 253.361 259.496C281.931 250.968 302.261 222.162 312.171 195.541C325.713 159.231 325.074 112.105 304.849 77.79Z" fill="#FA8A3C"/>
<path opacity="0.7" d="M304.849 77.79C303.819 76.0513 302.732 74.3344 301.589 72.6392C286.482 50.243 260.48 34.9275 234.889 28.0359C223.665 25.0494 212.133 23.367 200.523 23.022C124.493 20.414 94.2074 80.3654 69.0793 95.8308C43.9513 111.296 5.28767 137.683 7.86307 193.096C10.4385 248.51 50.393 300.676 127.714 303.936C205.034 307.196 210.192 272.347 253.361 259.496C281.931 250.968 302.261 222.162 312.171 195.541C325.713 159.231 325.074 112.105 304.849 77.79Z" fill="white"/>
<path d="M280.53 29.6337C278.873 27.9124 275.966 26.328 270.997 26.2042C259.77 25.9303 262.756 33.9043 259.77 35.7886C256.784 37.6728 255.936 34.6932 252.924 36.6101C249.912 38.527 251.281 42.3607 248.823 42.9084C246.365 43.4561 243.072 40.4243 240.06 42.3803C237.048 44.3363 237.048 45.9402 235.678 45.9402C234.309 45.9402 231.571 44.8448 229.928 45.9402C228.285 47.0356 226.368 48.4048 226.368 48.4048H255.767" stroke="#263238" stroke-linecap="round" stroke-linejoin="round"/>
<path d="M283.62 34.5559C283.353 34.4255 283.072 34.2951 282.772 34.1647C282.64 33.1422 282.295 32.1586 281.762 31.2764" stroke="#263238" stroke-linecap="round" stroke-linejoin="round"/>
<path d="M259.529 48.3851H295.636C295.636 48.3851 296.458 45.9205 293.446 44.2775C290.433 42.6345 289.071 44.0037 287.975 42.6345C286.997 41.4152 290.146 38.4617 285.048 35.3125" stroke="#263238" stroke-linecap="round" stroke-linejoin="round"/>
<path d="M81.1349 41.0761C80.4829 40.4241 79.368 39.7721 77.4315 39.7721C73.0762 39.6678 74.2433 42.7518 73.0762 43.495C71.9091 44.2383 71.5896 43.0712 70.416 43.8145C69.2424 44.5578 69.764 46.0444 68.8251 46.2595C67.8863 46.4747 66.5888 45.3011 65.4217 46.0444C64.2546 46.7876 64.2546 47.4266 63.72 47.4266C63.1854 47.4266 62.1291 47.0028 61.4901 47.4266C60.8512 47.8504 60.1079 48.385 60.1079 48.385H71.5179" stroke="#263238" stroke-linecap="round" stroke-linejoin="round"/>
<path d="M82.3346 43.0321L82.002 42.8822C81.954 42.4845 81.8206 42.102 81.6108 41.7607" stroke="#263238" stroke-linecap="round" stroke-linejoin="round"/>
<path d="M72.9849 48.3851H86.9963C87.0719 48.0614 87.0277 47.7212 86.8719 47.4276C86.7161 47.1339 86.4592 46.9066 86.1487 46.7877C84.9817 46.1357 84.447 46.6834 84.0232 46.1357C83.5994 45.588 84.8643 44.5122 82.8887 43.293" stroke="#263238" stroke-linecap="round" stroke-linejoin="round"/>
<path d="M238.182 23.0024C237.53 22.3504 236.422 21.6984 234.479 21.6984C230.156 21.568 231.291 24.6519 230.156 25.4278C229.022 26.2037 228.67 24.9975 227.496 25.7473C226.322 26.4971 226.844 27.9771 225.905 28.1923C224.966 28.4074 223.669 27.2338 222.502 27.9771C221.335 28.7204 221.302 29.3398 220.767 29.3398C220.233 29.3398 219.176 28.916 218.538 29.3398C217.899 29.7636 217.155 30.2982 217.155 30.2982H228.565" stroke="#263238" stroke-linecap="round" stroke-linejoin="round"/>
<path d="M239.382 24.9062L239.049 24.7562C239.001 24.3586 238.868 23.976 238.658 23.6348" stroke="#263238" stroke-linecap="round" stroke-linejoin="round"/>
<path d="M230.032 30.2851H244.044C244.119 29.9614 244.075 29.6213 243.919 29.3276C243.763 29.034 243.507 28.8066 243.196 28.6877C242.029 28.0357 241.494 28.5834 241.071 28.0357C240.647 27.4881 241.892 26.4318 239.936 25.2061" stroke="#263238" stroke-linecap="round" stroke-linejoin="round"/>
<path d="M172.128 275.796C236.584 275.796 288.836 223.544 288.836 159.088C288.836 94.6318 236.584 42.3799 172.128 42.3799C107.672 42.3799 55.4199 94.6318 55.4199 159.088C55.4199 223.544 107.672 275.796 172.128 275.796Z" stroke="#263238" stroke-linejoin="round" stroke-dasharray="2 2"/>
<path d="M259.255 299.235H285.159" stroke="#263238" stroke-miterlimit="10"/>
<path d="M49.7214 299.235H254.645" stroke="#263238" stroke-miterlimit="10"/>
<path d="M266.772 229.022C266.529 229.024 266.288 228.963 266.075 228.845C265.903 228.754 265.751 228.63 265.627 228.48C265.504 228.33 265.411 228.157 265.355 227.971C265.298 227.785 265.279 227.589 265.299 227.396C265.318 227.203 265.376 227.015 265.468 226.844L270.3 217.807C270.493 217.477 270.807 217.235 271.175 217.132C271.543 217.028 271.937 217.071 272.274 217.251C272.612 217.432 272.866 217.736 272.984 218.099C273.102 218.463 273.075 218.858 272.908 219.202L268.07 228.239C267.945 228.475 267.758 228.672 267.529 228.81C267.301 228.948 267.039 229.021 266.772 229.022Z" fill="#263238"/>
<path d="M285.478 229.022C285.21 229.022 284.947 228.949 284.717 228.812C284.488 228.674 284.3 228.476 284.174 228.239L279.336 219.202C279.169 218.858 279.142 218.463 279.26 218.099C279.378 217.736 279.632 217.432 279.97 217.251C280.307 217.071 280.701 217.028 281.069 217.132C281.437 217.235 281.751 217.477 281.944 217.807L286.776 226.844C286.868 227.015 286.926 227.203 286.945 227.396C286.964 227.589 286.945 227.785 286.889 227.971C286.833 228.157 286.74 228.33 286.617 228.48C286.493 228.63 286.341 228.754 286.169 228.846C285.958 228.963 285.72 229.023 285.478 229.022Z" fill="#263238"/>
<path d="M276.122 222.919C283.435 222.919 289.364 216.99 289.364 209.677C289.364 202.363 283.435 196.435 276.122 196.435C268.809 196.435 262.88 202.363 262.88 209.677C262.88 216.99 268.809 222.919 276.122 222.919Z" fill="#FA8A3C" stroke="#263238" stroke-linecap="round" stroke-linejoin="round"/>
<path d="M276.122 221.028C282.391 221.028 287.473 215.946 287.473 209.677C287.473 203.407 282.391 198.325 276.122 198.325C269.853 198.325 264.771 203.407 264.771 209.677C264.771 215.946 269.853 221.028 276.122 221.028Z" fill="white" stroke="#263238" stroke-linecap="round" stroke-linejoin="round"/>
<path d="M276.331 201.272C276.331 201.272 276.122 210.518 276.122 209.677L278.43 214.299" stroke="#263238" stroke-miterlimit="10"/>
<path d="M283.62 195.809C283.368 194.059 282.494 192.459 281.158 191.302C279.823 190.145 278.114 189.508 276.347 189.508C274.58 189.508 272.871 190.145 271.536 191.302C270.2 192.459 269.326 194.059 269.074 195.809H283.62Z" fill="white" stroke="#263238" stroke-linecap="round" stroke-linejoin="round"/>
<path d="M276.122 210.518C276.587 210.518 276.963 210.142 276.963 209.677C276.963 209.213 276.587 208.836 276.122 208.836C275.658 208.836 275.281 209.213 275.281 209.677C275.281 210.142 275.658 210.518 276.122 210.518Z" fill="#263238" stroke="#263238" stroke-miterlimit="10"/>
<path d="M299.059 142.905C299.06 144.823 298.683 146.721 297.95 148.493C297.217 150.264 296.141 151.874 294.786 153.23C293.43 154.585 291.82 155.661 290.049 156.394C288.277 157.127 286.378 157.504 284.461 157.504C283.646 157.507 282.832 157.437 282.029 157.295C278.633 156.715 275.552 154.952 273.33 152.318C271.109 149.685 269.89 146.351 269.89 142.905C269.89 139.46 271.109 136.126 273.33 133.492C275.552 130.859 278.633 129.096 282.029 128.516C282.833 128.379 283.646 128.311 284.461 128.314C286.378 128.313 288.276 128.689 290.047 129.422C291.818 130.155 293.428 131.23 294.783 132.585C296.139 133.94 297.214 135.549 297.948 137.32C298.682 139.091 299.059 140.989 299.059 142.905Z" fill="#FA8A3C" stroke="#263238" stroke-linecap="round" stroke-linejoin="round"/>
<path d="M283.04 128.274C289.429 129.826 294.196 136.04 294.196 142.905C294.196 146.355 292.974 149.693 290.747 152.327C288.519 154.962 285.431 156.722 282.029 157.295" stroke="#263238" stroke-linecap="round" stroke-linejoin="round"/>
<path d="M274.101 132.389C276.585 132.389 280.386 133.204 283.633 137.174C288.999 143.727 296.145 144.346 298.531 138.368" stroke="#263238" stroke-linecap="round" stroke-linejoin="round"/>
<path d="M269.928 144.027C269.928 144.027 289.755 153.109 299.053 142.905" stroke="#263238" stroke-linecap="round" stroke-linejoin="round"/>
<path d="M275.509 154.25C278.063 154.59 280.661 154.248 283.04 153.259C287.806 151.173 292.037 150.084 294.059 151.473C294.344 151.643 294.593 151.868 294.79 152.136C294.988 152.403 295.129 152.708 295.206 153.031" stroke="#263238" stroke-linecap="round" stroke-linejoin="round"/>
<path d="M270.58 85.0474C270.58 91.5674 265.266 98.4394 260.148 98.4394C258.896 98.4394 255.656 98.4394 254.502 98.0026C248.19 95.5641 245.752 89.5266 245.752 84.2715C245.752 81.5461 246.573 78.573 248.732 76.7539C251.594 74.3415 254.75 75.8607 258.075 75.8607C260.97 75.8607 265.025 74.6741 267.203 76.3041C270.052 78.3513 270.58 81.8135 270.58 85.0474Z" fill="white" stroke="#263238" stroke-linejoin="round"/>
<path d="M267.177 80.6791C266.759 81.4094 265.495 81.4615 264.354 80.803C263.213 80.1445 262.632 79.023 263.05 78.2993C263.467 77.5756 264.732 77.5169 265.873 78.1755C267.014 78.834 267.6 79.9554 267.177 80.6791Z" fill="white" stroke="#263238" stroke-linejoin="round"/>
<path d="M257.442 76.8579L257.664 76.3428L260.761 69.1251L258.707 68.8057L256.653 76.0689L257.442 76.8579Z" fill="#263238" stroke="#263238" stroke-linejoin="round"/>
<path d="M257.918 71.9616C257.918 71.9616 256.497 68.8059 254.443 68.3364C252.389 67.867 246.71 70.5467 246.71 70.5467C246.71 70.5467 249.547 72.594 251.757 73.2264C253.967 73.8589 257.918 71.9616 257.918 71.9616Z" fill="#FA8A3C" stroke="#263238" stroke-linejoin="round"/>
<path d="M179.698 64.0327C179.241 61.4573 178.596 54.7482 179.15 52.2967C179.478 50.7989 179.6 49.2636 179.515 47.7327V38.6634C179.781 37.4503 179.75 36.191 179.424 34.9926C178.87 33.0366 174.645 28.9225 174.645 28.9225V27.4555H174.377L173.21 27.3838H172.871H172.532L171.365 27.4294H171.098V28.8964C171.098 28.8964 166.873 33.0366 166.319 34.9665C165.999 36.1758 165.979 37.4446 166.26 38.6634V47.674C166.175 49.2049 166.298 50.7402 166.625 52.238C167.179 54.7156 166.534 61.4247 166.077 63.974C165.621 66.5233 165.804 68.4793 167.271 69.19C168.496 69.8029 171.835 69.3987 172.904 69.2422C173.98 69.3987 177.311 69.8029 178.537 69.19C179.952 68.538 180.161 66.6081 179.698 64.0327Z" fill="white" stroke="#263238" stroke-linejoin="round"/>
<path d="M177.905 52.7596C178.172 51.4738 178.273 50.159 178.205 48.8476V44.4727H167.564V48.8476C167.496 50.159 167.597 51.4738 167.864 52.7596C168.301 54.8786 167.786 60.5836 167.421 62.7873C167.055 64.9911 167.199 66.6276 168.379 67.2535C169.364 67.7751 172.037 67.4296 172.897 67.2992C173.758 67.4296 176.431 67.7751 177.416 67.2535C178.596 66.6015 178.72 64.9846 178.374 62.7873C178.029 60.5901 177.468 54.8786 177.905 52.7596Z" fill="#FA8A3C"/>
<path d="M175.055 25.3369H170.641V27.821H175.055V25.3369Z" fill="#263238" stroke="#263238" stroke-linejoin="round"/>
<path d="M166.501 37.7441H179.372" stroke="#263238" stroke-linejoin="round"/>
<path d="M171.698 46.9375H178.818" stroke="#263238" stroke-linejoin="round"/>
<path d="M166.964 46.9375H169.103" stroke="#263238" stroke-linejoin="round"/>
<path d="M79.7721 82.1002H82.9799L86.4747 75.5802L90.0215 83.4042L90.6279 81.7937H95.068L99.795 71.0553L102.84 81.057H108.401C109.954 79.2505 110.768 76.924 110.678 74.5434C110.589 72.1628 109.603 69.9039 107.919 68.2191C106.145 66.4449 103.738 65.4482 101.229 65.4482C98.7204 65.4482 96.3141 66.4449 94.5399 68.2191L93.5619 69.1971L92.5839 68.2126C90.7973 66.5041 88.4128 65.5627 85.9409 65.5901C83.469 65.6174 81.106 66.6112 79.3575 68.3588C77.6091 70.1064 76.6141 72.4689 76.5856 74.9408C76.5571 77.4127 77.4972 79.7976 79.2049 81.5851L79.7721 82.1002Z" fill="#FA8A3C" stroke="#263238" stroke-linejoin="round"/>
<path d="M101.614 82.6544L99.5147 75.7432L96.1504 83.3911H91.7689L90.1715 87.6617L86.3573 79.2835L83.971 83.7562H81.4282L93.5619 95.89L106.804 82.6544H101.614Z" fill="#FA8A3C" stroke="#263238" stroke-linejoin="round"/>
<path d="M49.2782 138.328C49.2782 138.328 48.6848 136.372 46.8919 135.942C45.0989 135.511 41.3238 136.137 40.7305 133.953C40.1371 131.769 42.9147 132.362 42.3213 130.569C41.728 128.776 37.3531 128.783 36.3555 125.399C35.358 122.015 36.7533 118.442 39.3352 119.635C41.9171 120.828 43.1168 125.797 44.1078 127.785C45.0989 129.774 44.9033 125.797 47.6873 125.399C50.4713 125.001 53.2554 127.192 51.4689 129.963C49.6824 132.734 49.7476 134.912 50.0736 136.326C50.3018 137.311 50.3605 137.233 50.3605 137.233L49.2782 138.328Z" fill="#FA8A3C" stroke="#263238" stroke-linejoin="round"/>
<path d="M39.3417 124.78C38.7908 123.979 38.397 123.081 38.1812 122.133" stroke="#263238" stroke-miterlimit="10"/>
<path d="M49.9302 137.858C49.4984 136.122 48.635 134.523 47.42 133.209C45.3402 130.882 42.6474 129.297 40.5088 126.474C40.3328 126.246 40.1763 126.031 40.0264 125.822" stroke="#263238" stroke-miterlimit="10"/>
<path d="M55.5178 135.088C55.5178 135.088 46.429 136.907 46.429 145.52C46.429 154.133 70.9637 170.948 72.7828 167.786C74.6019 164.623 65.6695 145.774 63.394 141.706C61.1185 137.637 58.68 134.631 55.5178 135.088Z" fill="white" stroke="#263238" stroke-miterlimit="10"/>
<path d="M49.0825 151.844C49.0825 151.844 52.2643 147.071 55.2439 145.683" stroke="#263238" stroke-miterlimit="10"/>
<path d="M64.9848 147.071C62.7592 148.001 60.7336 149.352 59.019 151.048" stroke="#263238" stroke-miterlimit="10"/>
<path d="M60.636 161.787C61.607 159.531 63.2811 157.648 65.4086 156.421" stroke="#263238" stroke-miterlimit="10"/>
<path d="M60.0167 142.898L58.0281 144.092" stroke="#263238" stroke-miterlimit="10"/>
<path d="M68.1666 155.025L66.7778 155.423" stroke="#263238" stroke-miterlimit="10"/>
<path d="M64.9979 223.916C73.1719 223.916 79.7983 217.29 79.7983 209.116C79.7983 200.942 73.1719 194.315 64.9979 194.315C56.8239 194.315 50.1975 200.942 50.1975 209.116C50.1975 217.29 56.8239 223.916 64.9979 223.916Z" fill="#FA8A3C" stroke="#263238" stroke-linecap="round" stroke-linejoin="round"/>
<path d="M68.8512 198.86C68.8512 201.389 66.5496 206.84 64.9979 206.84C63.4461 206.84 61.1445 201.389 61.1445 198.86C61.1445 196.33 63.4461 195.6 64.9979 195.6C66.5496 195.6 68.8512 196.317 68.8512 198.86Z" fill="white" stroke="#263238" stroke-linecap="round" stroke-linejoin="round"/>
<path d="M58.0281 200.64C60.2188 201.905 64.02 206.071 63.2441 207.415C62.4682 208.758 56.372 208.582 54.1748 207.317C51.9775 206.052 52.4926 203.685 53.2685 202.342C54.0444 200.999 55.8439 199.375 58.0281 200.64Z" fill="white" stroke="#263238" stroke-linecap="round" stroke-linejoin="round"/>
<path d="M54.1747 210.909C56.3654 209.644 62.6507 208.536 63.407 209.879C64.1634 211.222 60.2253 216.321 58.0346 217.586C55.8438 218.851 54.0443 217.234 53.2684 215.891C52.4926 214.547 51.984 212.174 54.1747 210.909Z" fill="white" stroke="#263238" stroke-linecap="round" stroke-linejoin="round"/>
<path d="M61.1445 219.385C61.1445 216.855 63.4461 210.688 64.9979 210.688C66.5496 210.688 68.8512 216.855 68.8512 219.385C68.8512 221.915 66.5496 222.645 64.9979 222.645C63.4461 222.645 61.1445 221.915 61.1445 219.385Z" fill="white" stroke="#263238" stroke-linecap="round" stroke-linejoin="round"/>
<path d="M71.9612 217.586C69.7705 216.321 66.1649 211.548 66.9473 210.205C67.7297 208.862 73.6238 209.644 75.8145 210.909C78.0052 212.174 77.5032 214.541 76.7273 215.89C75.9514 217.24 74.1519 218.851 71.9612 217.586Z" fill="white" stroke="#263238" stroke-linecap="round" stroke-linejoin="round"/>
<path d="M75.8212 207.336C73.624 208.601 67.7234 209.149 66.9475 207.805C66.1716 206.462 69.7706 201.938 71.9614 200.634C74.1521 199.33 75.9516 200.992 76.7275 202.335C77.5034 203.678 78.0119 206.032 75.8212 207.336Z" fill="white" stroke="#263238" stroke-linecap="round" stroke-linejoin="round"/>
<path d="M282.642 260.435C282.642 260.435 283.19 258.446 283.209 258.316C283.418 256.803 282.935 253.752 281.397 253.021C281.138 252.905 280.858 252.844 280.574 252.843C280.291 252.842 280.01 252.9 279.751 253.014C279.491 253.129 279.259 253.297 279.068 253.507C278.878 253.717 278.734 253.965 278.645 254.234C278.235 255.369 278.756 256.757 279.376 257.716C280.106 258.844 282.642 260.435 282.642 260.435Z" fill="#263238"/>
<path d="M252.324 259.777C253.55 260.312 256.549 260.246 256.549 260.246C256.549 260.246 255.897 258.29 255.845 258.166C255.193 256.791 253.106 254.515 251.418 254.743C251.138 254.79 250.871 254.895 250.634 255.051C250.397 255.207 250.195 255.412 250.042 255.651C249.889 255.89 249.788 256.158 249.745 256.439C249.703 256.72 249.719 257.006 249.794 257.28C250.075 258.453 251.281 259.32 252.324 259.777Z" fill="#263238"/>
<path d="M253.361 268.461C254.665 268.644 257.305 267.868 257.514 267.809C257.954 269.339 258.497 270.838 259.137 272.295C259.509 273.149 259.907 273.997 260.311 274.838C260.07 274.486 259.848 274.186 259.815 274.127C258.818 272.973 256.21 271.33 254.639 271.995C254.38 272.114 254.15 272.285 253.962 272.498C253.775 272.711 253.634 272.961 253.549 273.233C253.464 273.504 253.437 273.79 253.47 274.072C253.503 274.354 253.594 274.626 253.739 274.87C254.319 275.927 255.695 276.448 256.842 276.611C257.99 276.774 260.278 276.161 260.885 275.992C261.041 276.311 261.198 276.644 261.361 276.957C262.137 278.502 262.912 280.034 263.636 281.566C263.89 282.108 264.119 282.649 264.347 283.183C264.132 282.87 263.949 282.603 263.917 282.564C262.919 281.41 260.311 279.767 258.74 280.439C258.482 280.556 258.251 280.727 258.064 280.94C257.876 281.152 257.735 281.402 257.65 281.672C257.565 281.943 257.539 282.228 257.571 282.51C257.604 282.792 257.695 283.063 257.84 283.307C258.427 284.364 259.796 284.885 260.943 285.055C262.091 285.224 264.158 284.663 264.855 284.461C265.077 285.022 265.299 285.583 265.507 286.137C265.625 286.515 265.768 286.874 265.866 287.258C265.964 287.643 266.081 288.021 266.186 288.399C266.362 289.13 266.544 289.879 266.701 290.597C266.811 291.092 266.903 291.568 267.001 292.044C266.759 291.509 266.251 290.46 266.199 290.382C265.39 289.078 263.062 287.069 261.406 287.493C261.134 287.571 260.881 287.705 260.665 287.888C260.448 288.07 260.273 288.296 260.15 288.551C260.026 288.805 259.959 289.084 259.95 289.366C259.942 289.649 259.994 289.931 260.102 290.192C260.513 291.327 261.811 292.051 262.899 292.39C264.099 292.755 266.753 292.39 267.085 292.39C267.242 293.179 267.392 293.954 267.516 294.685C267.789 296.21 267.992 297.593 268.168 298.773H269.276C269.087 297.547 268.839 296.106 268.52 294.502C268.363 293.694 268.174 292.833 267.979 291.953C268.777 291.634 269.557 291.268 270.313 290.857C271.186 291.803 273.423 292.911 273.716 293.055C273.41 293.805 273.11 294.528 272.81 295.206C272.23 296.549 271.675 297.743 271.18 298.773H272.386C272.803 297.827 273.266 296.771 273.742 295.604C274.055 294.841 274.394 294.026 274.694 293.179C275.014 293.25 277.641 293.785 278.867 293.505C279.982 293.257 281.325 292.624 281.82 291.549C281.947 291.294 282.018 291.016 282.03 290.732C282.041 290.448 281.993 290.165 281.888 289.901C281.783 289.637 281.623 289.398 281.419 289.2C281.216 289.002 280.972 288.849 280.706 288.752C279.089 288.21 276.618 290.056 275.711 291.275C275.659 291.346 275.164 292.201 274.864 292.742C274.994 292.396 275.124 292.09 275.248 291.705C275.509 291.001 275.744 290.29 276.005 289.527C276.115 289.156 276.226 288.778 276.344 288.393C276.461 288.008 276.546 287.611 276.644 287.213C276.865 286.287 277.041 285.342 277.204 284.383C277.817 284.605 280.021 285.374 281.162 285.296C282.303 285.218 283.724 284.794 284.383 283.783C284.547 283.553 284.661 283.291 284.718 283.014C284.774 282.736 284.772 282.45 284.71 282.174C284.649 281.898 284.53 281.638 284.361 281.411C284.192 281.183 283.977 280.994 283.731 280.856C282.212 280.073 279.493 281.508 278.411 282.59C278.345 282.662 277.654 283.516 277.283 283.998C277.374 283.418 277.472 282.844 277.543 282.258C277.752 280.562 277.915 278.841 278.078 277.126C278.13 276.605 278.189 276.083 278.241 275.555C278.463 275.64 281.064 276.605 282.342 276.513C283.477 276.435 284.898 276.018 285.556 275.007C285.721 274.777 285.835 274.515 285.891 274.238C285.948 273.96 285.945 273.674 285.884 273.398C285.822 273.122 285.703 272.862 285.534 272.635C285.366 272.408 285.151 272.219 284.904 272.08C283.385 271.297 280.666 272.732 279.584 273.814C279.506 273.899 278.515 275.118 278.28 275.457C278.404 274.31 278.534 273.156 278.71 272.034C278.939 270.51 279.268 269.003 279.695 267.522C279.793 267.561 282.505 268.585 283.816 268.487C284.95 268.409 286.371 267.992 287.03 266.981C287.194 266.751 287.309 266.489 287.365 266.211C287.421 265.934 287.419 265.648 287.357 265.372C287.296 265.096 287.177 264.836 287.008 264.609C286.839 264.381 286.625 264.192 286.378 264.054C284.859 263.271 282.14 264.706 281.058 265.788C280.986 265.86 280.236 266.799 279.884 267.255L279.799 267.209C280.266 265.732 280.866 264.301 281.592 262.932C281.977 262.169 282.394 261.465 282.812 260.787C283.294 261.028 285.524 262.091 286.724 262.163C287.923 262.235 289.332 261.948 290.088 261.015C290.275 260.802 290.416 260.552 290.5 260.282C290.584 260.011 290.611 259.725 290.577 259.444C290.544 259.162 290.452 258.891 290.307 258.647C290.162 258.403 289.967 258.193 289.736 258.029C288.314 257.084 285.452 258.218 284.259 259.17C284.194 259.222 283.607 259.822 283.164 260.259C283.353 259.959 283.548 259.646 283.737 259.359C284.455 258.284 285.172 257.338 285.817 256.51C286.189 256.047 286.534 255.63 286.86 255.245C287.46 255.245 289.873 255.16 290.935 254.665C291.998 254.169 293.139 253.276 293.393 252.096C293.461 251.821 293.47 251.534 293.42 251.255C293.37 250.976 293.261 250.71 293.102 250.476C292.943 250.241 292.737 250.042 292.496 249.892C292.255 249.742 291.986 249.645 291.705 249.605C290.003 249.423 287.988 251.751 287.362 253.146C287.31 253.263 286.71 255.245 286.71 255.245H286.743C286.424 255.61 286.091 256.002 285.719 256.445C285.067 257.26 284.311 258.186 283.574 259.248C282.76 260.387 282.016 261.574 281.345 262.802C280.585 264.168 279.948 265.6 279.441 267.079C279.441 267.079 279.441 267.118 279.441 267.138C279.441 266.636 279.441 265.234 279.441 265.13C279.245 263.617 277.974 260.807 276.298 260.5C276.011 260.436 275.714 260.436 275.427 260.498C275.14 260.561 274.871 260.685 274.637 260.863C274.403 261.04 274.21 261.267 274.073 261.526C273.935 261.786 273.856 262.072 273.84 262.365C273.742 263.571 274.616 264.771 275.463 265.527C276.422 266.388 279.082 267.216 279.291 267.281C278.815 268.8 278.44 270.348 278.169 271.917C278.006 272.83 277.869 273.755 277.745 274.688C277.745 274.258 277.745 273.866 277.745 273.814C277.55 272.302 276.278 269.491 274.603 269.185C274.323 269.141 274.036 269.156 273.762 269.23C273.488 269.303 273.233 269.434 273.013 269.613C272.792 269.792 272.612 270.015 272.484 270.268C272.356 270.522 272.283 270.799 272.269 271.082C272.171 272.288 273.045 273.488 273.892 274.251C274.74 275.014 277.009 275.77 277.602 275.959C277.563 276.318 277.511 276.676 277.472 277.029C277.263 278.743 277.067 280.458 276.82 282.127C276.735 282.721 276.624 283.294 276.52 283.875C276.52 283.49 276.52 283.164 276.52 283.118C276.324 281.606 275.059 278.795 273.377 278.489C273.097 278.445 272.81 278.46 272.536 278.534C272.262 278.607 272.007 278.738 271.787 278.917C271.567 279.096 271.387 279.319 271.258 279.573C271.13 279.826 271.057 280.103 271.043 280.386C270.945 281.586 271.819 282.792 272.666 283.549C273.514 284.305 275.561 284.996 276.272 285.231C276.148 285.818 276.024 286.404 275.881 286.972C275.77 287.356 275.692 287.734 275.561 288.113C275.431 288.491 275.32 288.862 275.196 289.234C274.942 289.938 274.681 290.668 274.414 291.353C274.231 291.822 274.049 292.272 273.866 292.729C273.957 292.142 274.114 290.994 274.114 290.897C274.098 289.554 273.736 288.238 273.064 287.076C273.077 286.928 273.077 286.78 273.064 286.633C273.029 286.351 272.934 286.08 272.787 285.837C272.641 285.595 272.444 285.386 272.211 285.224C271.978 285.062 271.713 284.951 271.435 284.899C271.156 284.846 270.869 284.852 270.593 284.918C268.943 285.355 267.894 288.249 267.816 289.775C267.816 289.866 267.868 290.844 267.92 291.464C267.835 291.105 267.757 290.753 267.666 290.388C267.496 289.658 267.3 288.934 267.092 288.152C266.981 287.78 266.87 287.402 266.753 287.024C266.635 286.646 266.485 286.261 266.355 285.87C266.029 284.976 265.651 284.09 265.26 283.203C265.912 283.046 268.155 282.473 269.067 281.775C269.98 281.077 270.926 279.949 270.919 278.743C270.926 278.46 270.874 278.178 270.765 277.916C270.656 277.654 270.494 277.418 270.288 277.223C270.082 277.028 269.837 276.879 269.569 276.784C269.302 276.69 269.018 276.653 268.735 276.676C267.04 276.859 265.566 279.565 265.253 281.058C265.253 281.149 265.136 282.245 265.09 282.851C264.849 282.316 264.608 281.788 264.347 281.26C263.591 279.728 262.769 278.209 261.967 276.696L261.237 275.294C261.459 275.242 264.164 274.642 265.181 273.834C266.081 273.143 267.04 272.008 267.033 270.802C267.041 270.518 266.99 270.236 266.881 269.973C266.773 269.711 266.61 269.474 266.404 269.279C266.198 269.084 265.953 268.935 265.685 268.841C265.417 268.747 265.132 268.711 264.849 268.735C263.154 268.918 261.68 271.623 261.374 273.117C261.374 273.227 261.204 274.805 261.191 275.209C260.657 274.179 260.128 273.149 259.659 272.112C259.009 270.716 258.451 269.279 257.99 267.809C258.094 267.809 260.917 267.157 261.961 266.342C262.867 265.651 263.825 264.517 263.812 263.31C263.819 263.027 263.767 262.745 263.658 262.482C263.55 262.22 263.387 261.984 263.181 261.788C262.975 261.593 262.731 261.443 262.463 261.348C262.196 261.253 261.911 261.215 261.628 261.237C259.933 261.426 258.459 264.132 258.153 265.625C258.153 265.723 258.022 266.929 257.983 267.496H257.886C257.463 266.003 257.172 264.476 257.018 262.932C256.921 262.085 256.875 261.27 256.855 260.474C257.39 260.409 259.848 260.083 260.865 259.464C261.882 258.844 262.912 257.853 263.036 256.654C263.076 256.371 263.055 256.084 262.976 255.81C262.896 255.537 262.76 255.283 262.575 255.066C262.39 254.849 262.161 254.674 261.903 254.552C261.646 254.43 261.365 254.364 261.08 254.358C259.379 254.358 257.612 256.882 257.168 258.329C257.168 258.414 256.973 259.242 256.855 259.848C256.855 259.49 256.855 259.118 256.855 258.773C256.855 257.469 256.94 256.301 257.018 255.252C257.071 254.658 257.129 254.124 257.188 253.622C257.683 253.283 259.652 251.887 260.265 250.89C260.878 249.892 261.341 248.517 260.917 247.395C260.823 247.127 260.673 246.882 260.477 246.676C260.281 246.47 260.044 246.308 259.782 246.199C259.519 246.091 259.236 246.039 258.952 246.048C258.668 246.056 258.389 246.124 258.133 246.248C256.621 247.037 256.216 250.088 256.471 251.594C256.471 251.724 257.064 253.72 257.09 253.7H257.123C257.057 254.182 256.986 254.698 256.927 255.265C256.823 256.308 256.718 257.495 256.686 258.792C256.639 260.188 256.672 261.586 256.784 262.978C256.906 264.539 257.166 266.085 257.56 267.601V267.653C257.292 267.229 256.497 266.075 256.432 265.997C255.434 264.843 252.826 263.2 251.255 263.865C250.997 263.983 250.766 264.154 250.578 264.368C250.391 264.581 250.25 264.831 250.165 265.102C250.08 265.373 250.053 265.659 250.086 265.941C250.119 266.223 250.21 266.495 250.355 266.74C250.837 267.777 252.233 268.298 253.361 268.461Z" fill="#263238"/>
<path opacity="0.3" d="M252.324 259.777C253.55 260.312 256.549 260.246 256.549 260.246C256.549 260.246 255.897 258.29 255.845 258.166C255.193 256.791 253.106 254.515 251.418 254.743C251.138 254.79 250.871 254.895 250.634 255.051C250.397 255.207 250.195 255.412 250.042 255.651C249.889 255.89 249.788 256.158 249.745 256.439C249.703 256.72 249.719 257.006 249.794 257.28C250.075 258.453 251.281 259.32 252.324 259.777Z" fill="#263238"/>
<path opacity="0.3" d="M282.642 260.435C282.642 260.435 283.19 258.446 283.209 258.316C283.418 256.803 282.935 253.752 281.397 253.021C281.138 252.905 280.858 252.844 280.574 252.843C280.291 252.842 280.01 252.9 279.751 253.014C279.491 253.129 279.259 253.297 279.068 253.507C278.878 253.717 278.734 253.965 278.645 254.234C278.235 255.369 278.756 256.757 279.376 257.716C280.106 258.844 282.642 260.435 282.642 260.435Z" fill="#263238"/>
<path opacity="0.3" d="M253.361 268.461C254.665 268.644 257.305 267.868 257.514 267.809C257.954 269.339 258.497 270.838 259.137 272.295C259.509 273.149 259.907 273.997 260.311 274.838C260.07 274.486 259.848 274.186 259.815 274.127C258.818 272.973 256.21 271.33 254.639 271.995C254.38 272.114 254.15 272.285 253.962 272.498C253.775 272.711 253.634 272.961 253.549 273.233C253.464 273.504 253.437 273.79 253.47 274.072C253.503 274.354 253.594 274.626 253.739 274.87C254.319 275.927 255.695 276.448 256.842 276.611C257.99 276.774 260.278 276.161 260.885 275.992C261.041 276.311 261.198 276.644 261.361 276.957C262.137 278.502 262.912 280.034 263.636 281.566C263.89 282.108 264.119 282.649 264.347 283.183C264.132 282.87 263.949 282.603 263.917 282.564C262.919 281.41 260.311 279.767 258.74 280.439C258.482 280.556 258.251 280.727 258.064 280.94C257.876 281.152 257.735 281.402 257.65 281.672C257.565 281.943 257.539 282.228 257.571 282.51C257.604 282.792 257.695 283.063 257.84 283.307C258.427 284.364 259.796 284.885 260.943 285.055C262.091 285.224 264.158 284.663 264.855 284.461C265.077 285.022 265.299 285.583 265.507 286.137C265.625 286.515 265.768 286.874 265.866 287.258C265.964 287.643 266.081 288.021 266.186 288.399C266.362 289.13 266.544 289.879 266.701 290.597C266.811 291.092 266.903 291.568 267.001 292.044C266.759 291.509 266.251 290.46 266.199 290.382C265.39 289.078 263.062 287.069 261.406 287.493C261.134 287.571 260.881 287.705 260.665 287.888C260.448 288.07 260.273 288.296 260.15 288.551C260.026 288.805 259.959 289.084 259.95 289.366C259.942 289.649 259.994 289.931 260.102 290.192C260.513 291.327 261.811 292.051 262.899 292.39C264.099 292.755 266.753 292.39 267.085 292.39C267.242 293.179 267.392 293.954 267.516 294.685C267.789 296.21 267.992 297.593 268.168 298.773H269.276C269.087 297.547 268.839 296.106 268.52 294.502C268.363 293.694 268.174 292.833 267.979 291.953C268.777 291.634 269.557 291.268 270.313 290.857C271.186 291.803 273.423 292.911 273.716 293.055C273.41 293.805 273.11 294.528 272.81 295.206C272.23 296.549 271.675 297.743 271.18 298.773H272.386C272.803 297.827 273.266 296.771 273.742 295.604C274.055 294.841 274.394 294.026 274.694 293.179C275.014 293.25 277.641 293.785 278.867 293.505C279.982 293.257 281.325 292.624 281.82 291.549C281.947 291.294 282.018 291.016 282.03 290.732C282.041 290.448 281.993 290.165 281.888 289.901C281.783 289.637 281.623 289.398 281.419 289.2C281.216 289.002 280.972 288.849 280.706 288.752C279.089 288.21 276.618 290.056 275.711 291.275C275.659 291.346 275.164 292.201 274.864 292.742C274.994 292.396 275.124 292.09 275.248 291.705C275.509 291.001 275.744 290.29 276.005 289.527C276.115 289.156 276.226 288.778 276.344 288.393C276.461 288.008 276.546 287.611 276.644 287.213C276.865 286.287 277.041 285.342 277.204 284.383C277.817 284.605 280.021 285.374 281.162 285.296C282.303 285.218 283.724 284.794 284.383 283.783C284.547 283.553 284.661 283.291 284.718 283.014C284.774 282.736 284.772 282.45 284.71 282.174C284.649 281.898 284.53 281.638 284.361 281.411C284.192 281.183 283.977 280.994 283.731 280.856C282.212 280.073 279.493 281.508 278.411 282.59C278.345 282.662 277.654 283.516 277.283 283.998C277.374 283.418 277.472 282.844 277.543 282.258C277.752 280.562 277.915 278.841 278.078 277.126C278.13 276.605 278.189 276.083 278.241 275.555C278.463 275.64 281.064 276.605 282.342 276.513C283.477 276.435 284.898 276.018 285.556 275.007C285.721 274.777 285.835 274.515 285.891 274.238C285.948 273.96 285.945 273.674 285.884 273.398C285.822 273.122 285.703 272.862 285.534 272.635C285.366 272.408 285.151 272.219 284.904 272.08C283.385 271.297 280.666 272.732 279.584 273.814C279.506 273.899 278.515 275.118 278.28 275.457C278.404 274.31 278.534 273.156 278.71 272.034C278.939 270.51 279.268 269.003 279.695 267.522C279.793 267.561 282.505 268.585 283.816 268.487C284.95 268.409 286.371 267.992 287.03 266.981C287.194 266.751 287.309 266.489 287.365 266.211C287.421 265.934 287.419 265.648 287.357 265.372C287.296 265.096 287.177 264.836 287.008 264.609C286.839 264.381 286.625 264.192 286.378 264.054C284.859 263.271 282.14 264.706 281.058 265.788C280.986 265.86 280.236 266.799 279.884 267.255L279.799 267.209C280.266 265.732 280.866 264.301 281.592 262.932C281.977 262.169 282.394 261.465 282.812 260.787C283.294 261.028 285.524 262.091 286.724 262.163C287.923 262.235 289.332 261.948 290.088 261.015C290.275 260.802 290.416 260.552 290.5 260.282C290.584 260.011 290.611 259.725 290.577 259.444C290.544 259.162 290.452 258.891 290.307 258.647C290.162 258.403 289.967 258.193 289.736 258.029C288.314 257.084 285.452 258.218 284.259 259.17C284.194 259.222 283.607 259.822 283.164 260.259C283.353 259.959 283.548 259.646 283.737 259.359C284.455 258.284 285.172 257.338 285.817 256.51C286.189 256.047 286.534 255.63 286.86 255.245C287.46 255.245 289.873 255.16 290.935 254.665C291.998 254.169 293.139 253.276 293.393 252.096C293.461 251.821 293.47 251.534 293.42 251.255C293.37 250.976 293.261 250.71 293.102 250.476C292.943 250.241 292.737 250.042 292.496 249.892C292.255 249.742 291.986 249.645 291.705 249.605C290.003 249.423 287.988 251.751 287.362 253.146C287.31 253.263 286.71 255.245 286.71 255.245H286.743C286.424 255.61 286.091 256.002 285.719 256.445C285.067 257.26 284.311 258.186 283.574 259.248C282.76 260.387 282.016 261.574 281.345 262.802C280.585 264.168 279.948 265.6 279.441 267.079C279.441 267.079 279.441 267.118 279.441 267.138C279.441 266.636 279.441 265.234 279.441 265.13C279.245 263.617 277.974 260.807 276.298 260.5C276.011 260.436 275.714 260.436 275.427 260.498C275.14 260.561 274.871 260.685 274.637 260.863C274.403 261.04 274.21 261.267 274.073 261.526C273.935 261.786 273.856 262.072 273.84 262.365C273.742 263.571 274.616 264.771 275.463 265.527C276.422 266.388 279.082 267.216 279.291 267.281C278.815 268.8 278.44 270.348 278.169 271.917C278.006 272.83 277.869 273.755 277.745 274.688C277.745 274.258 277.745 273.866 277.745 273.814C277.55 272.302 276.278 269.491 274.603 269.185C274.323 269.141 274.036 269.156 273.762 269.23C273.488 269.303 273.233 269.434 273.013 269.613C272.792 269.792 272.612 270.015 272.484 270.268C272.356 270.522 272.283 270.799 272.269 271.082C272.171 272.288 273.045 273.488 273.892 274.251C274.74 275.014 277.009 275.77 277.602 275.959C277.563 276.318 277.511 276.676 277.472 277.029C277.263 278.743 277.067 280.458 276.82 282.127C276.735 282.721 276.624 283.294 276.52 283.875C276.52 283.49 276.52 283.164 276.52 283.118C276.324 281.606 275.059 278.795 273.377 278.489C273.097 278.445 272.81 278.46 272.536 278.534C272.262 278.607 272.007 278.738 271.787 278.917C271.567 279.096 271.387 279.319 271.258 279.573C271.13 279.826 271.057 280.103 271.043 280.386C270.945 281.586 271.819 282.792 272.666 283.549C273.514 284.305 275.561 284.996 276.272 285.231C276.148 285.818 276.024 286.404 275.881 286.972C275.77 287.356 275.692 287.734 275.561 288.113C275.431 288.491 275.32 288.862 275.196 289.234C274.942 289.938 274.681 290.668 274.414 291.353C274.231 291.822 274.049 292.272 273.866 292.729C273.957 292.142 274.114 290.994 274.114 290.897C274.098 289.554 273.736 288.238 273.064 287.076C273.077 286.928 273.077 286.78 273.064 286.633C273.029 286.351 272.934 286.08 272.787 285.837C272.641 285.595 272.444 285.386 272.211 285.224C271.978 285.062 271.713 284.951 271.435 284.899C271.156 284.846 270.869 284.852 270.593 284.918C268.943 285.355 267.894 288.249 267.816 289.775C267.816 289.866 267.868 290.844 267.92 291.464C267.835 291.105 267.757 290.753 267.666 290.388C267.496 289.658 267.3 288.934 267.092 288.152C266.981 287.78 266.87 287.402 266.753 287.024C266.635 286.646 266.485 286.261 266.355 285.87C266.029 284.976 265.651 284.09 265.26 283.203C265.912 283.046 268.155 282.473 269.067 281.775C269.98 281.077 270.926 279.949 270.919 278.743C270.926 278.46 270.874 278.178 270.765 277.916C270.656 277.654 270.494 277.418 270.288 277.223C270.082 277.028 269.837 276.879 269.569 276.784C269.302 276.69 269.018 276.653 268.735 276.676C267.04 276.859 265.566 279.565 265.253 281.058C265.253 281.149 265.136 282.245 265.09 282.851C264.849 282.316 264.608 281.788 264.347 281.26C263.591 279.728 262.769 278.209 261.967 276.696L261.237 275.294C261.459 275.242 264.164 274.642 265.181 273.834C266.081 273.143 267.04 272.008 267.033 270.802C267.041 270.518 266.99 270.236 266.881 269.973C266.773 269.711 266.61 269.474 266.404 269.279C266.198 269.084 265.953 268.935 265.685 268.841C265.417 268.747 265.132 268.711 264.849 268.735C263.154 268.918 261.68 271.623 261.374 273.117C261.374 273.227 261.204 274.805 261.191 275.209C260.657 274.179 260.128 273.149 259.659 272.112C259.009 270.716 258.451 269.279 257.99 267.809C258.094 267.809 260.917 267.157 261.961 266.342C262.867 265.651 263.825 264.517 263.812 263.31C263.819 263.027 263.767 262.745 263.658 262.482C263.55 262.22 263.387 261.984 263.181 261.788C262.975 261.593 262.731 261.443 262.463 261.348C262.196 261.253 261.911 261.215 261.628 261.237C259.933 261.426 258.459 264.132 258.153 265.625C258.153 265.723 258.022 266.929 257.983 267.496H257.886C257.463 266.003 257.172 264.476 257.018 262.932C256.921 262.085 256.875 261.27 256.855 260.474C257.39 260.409 259.848 260.083 260.865 259.464C261.882 258.844 262.912 257.853 263.036 256.654C263.076 256.371 263.055 256.084 262.976 255.81C262.896 255.537 262.76 255.283 262.575 255.066C262.39 254.849 262.161 254.674 261.903 254.552C261.646 254.43 261.365 254.364 261.08 254.358C259.379 254.358 257.612 256.882 257.168 258.329C257.168 258.414 256.973 259.242 256.855 259.848C256.855 259.49 256.855 259.118 256.855 258.773C256.855 257.469 256.94 256.301 257.018 255.252C257.071 254.658 257.129 254.124 257.188 253.622C257.683 253.283 259.652 251.887 260.265 250.89C260.878 249.892 261.341 248.517 260.917 247.395C260.823 247.127 260.673 246.882 260.477 246.676C260.281 246.47 260.044 246.308 259.782 246.199C259.519 246.091 259.236 246.039 258.952 246.048C258.668 246.056 258.389 246.124 258.133 246.248C256.621 247.037 256.216 250.088 256.471 251.594C256.471 251.724 257.064 253.72 257.09 253.7H257.123C257.057 254.182 256.986 254.698 256.927 255.265C256.823 256.308 256.718 257.495 256.686 258.792C256.639 260.188 256.672 261.586 256.784 262.978C256.906 264.539 257.166 266.085 257.56 267.601V267.653C257.292 267.229 256.497 266.075 256.432 265.997C255.434 264.843 252.826 263.2 251.255 263.865C250.997 263.983 250.766 264.154 250.578 264.368C250.391 264.581 250.25 264.831 250.165 265.102C250.08 265.373 250.053 265.659 250.086 265.941C250.119 266.223 250.21 266.495 250.355 266.74C250.837 267.777 252.233 268.298 253.361 268.461Z" fill="#263238"/>
<path d="M74.7258 260.435C74.7258 260.435 75.2735 258.446 75.2931 258.316C75.5017 256.803 75.0192 253.752 73.4805 253.021C73.222 252.905 72.9418 252.844 72.6582 252.843C72.3746 252.842 72.094 252.9 71.8344 253.014C71.5749 253.129 71.3424 253.297 71.152 253.507C70.9615 253.717 70.8174 253.965 70.7291 254.234C70.3183 255.369 70.8399 256.757 71.4593 257.716C72.1895 258.844 74.7258 260.435 74.7258 260.435Z" fill="#263238"/>
<path d="M44.4078 259.777C45.6335 260.312 48.6262 260.246 48.6327 260.246C48.6393 260.246 47.9807 258.29 47.9286 258.166C47.2766 256.791 45.1902 254.515 43.5015 254.743C43.2215 254.79 42.9543 254.895 42.7173 255.051C42.4804 255.207 42.2788 255.412 42.1258 255.651C41.9728 255.89 41.8717 256.158 41.829 256.439C41.7863 256.72 41.803 257.006 41.878 257.28C42.1584 258.453 43.3646 259.32 44.4078 259.777Z" fill="#263238"/>
<path d="M45.4379 268.461C46.7419 268.644 49.389 267.868 49.5976 267.809C50.0381 269.339 50.5804 270.837 51.2211 272.295C51.5906 273.164 51.9818 274.012 52.3947 274.838C52.1535 274.486 51.9318 274.186 51.8927 274.127C50.8951 272.973 48.2936 271.33 46.7223 271.995C46.4641 272.113 46.2337 272.285 46.046 272.498C45.8583 272.711 45.7175 272.961 45.6326 273.232C45.5478 273.503 45.5209 273.789 45.5536 274.071C45.5863 274.354 45.6779 274.626 45.8225 274.87C46.4028 275.926 47.7785 276.448 48.9195 276.611C50.0605 276.774 52.3621 276.161 52.9685 275.992C53.1249 276.311 53.2814 276.644 53.4444 276.957C54.2203 278.502 54.9962 280.034 55.7134 281.566C55.9677 282.107 56.2024 282.649 56.4306 283.183C56.2154 282.87 56.0263 282.603 55.9937 282.564C54.9962 281.41 52.3947 279.767 50.8234 280.438C50.5654 280.556 50.3351 280.727 50.1474 280.939C49.9598 281.152 49.8189 281.402 49.7341 281.672C49.6492 281.943 49.6222 282.228 49.6549 282.51C49.6875 282.791 49.7791 283.063 49.9236 283.307C50.5039 284.363 51.8796 284.885 53.0206 285.054C54.1616 285.224 56.235 284.663 56.9326 284.461C57.1543 285.022 57.376 285.583 57.5846 286.137C57.702 286.515 57.8454 286.874 57.9432 287.258C58.041 287.643 58.1584 288.021 58.2627 288.399C58.4387 289.129 58.6213 289.879 58.7778 290.596C58.8886 291.092 58.9799 291.568 59.0777 292.044C58.8299 291.509 58.3279 290.46 58.2757 290.381C57.4673 289.077 55.1396 287.069 53.4835 287.493C53.2125 287.572 52.9611 287.708 52.7457 287.891C52.5302 288.073 52.3554 288.299 52.2325 288.553C52.1097 288.808 52.0415 289.085 52.0323 289.367C52.0232 289.649 52.0734 289.93 52.1795 290.192C52.5968 291.327 53.8943 292.05 54.9831 292.389C56.1828 292.755 58.8365 292.389 59.169 292.389C59.3255 293.178 59.4754 293.954 59.5993 294.685C59.8666 296.21 60.0753 297.592 60.2513 298.773H61.3662C61.1706 297.547 60.9294 296.106 60.6099 294.502C60.4469 293.693 60.2643 292.833 60.0687 291.953C60.8675 291.633 61.6469 291.268 62.4029 290.857C63.2766 291.803 65.5129 292.911 65.8063 293.055C65.4999 293.804 65.1935 294.528 64.9001 295.206C64.3198 296.549 63.7656 297.742 63.2701 298.773H64.4763C64.8935 297.827 65.3565 296.771 65.8324 295.604C66.1454 294.841 66.4844 294.026 66.7843 293.178C67.1038 293.25 69.7314 293.785 70.9571 293.504C72.0655 293.257 73.4152 292.624 73.9107 291.548C74.0371 291.294 74.1084 291.016 74.1201 290.732C74.1317 290.448 74.0833 290.165 73.9781 289.901C73.8729 289.637 73.7132 289.398 73.5095 289.2C73.3058 289.002 73.0626 288.849 72.7958 288.751C71.1788 288.21 68.7077 290.055 67.8015 291.275C67.7493 291.346 67.2538 292.2 66.9539 292.742C67.0843 292.396 67.2147 292.09 67.3385 291.705C67.5993 291.001 67.8341 290.29 68.0949 289.527C68.2057 289.156 68.3165 288.777 68.4339 288.393C68.5513 288.008 68.6295 287.61 68.7338 287.213C68.9555 286.287 69.1315 285.341 69.2945 284.383C69.9074 284.605 72.1112 285.374 73.2522 285.296C74.3932 285.217 75.8145 284.794 76.4731 283.783C76.6375 283.553 76.7517 283.291 76.8081 283.013C76.8645 282.736 76.8618 282.45 76.8003 282.174C76.7388 281.898 76.6198 281.638 76.4511 281.41C76.2824 281.183 76.0677 280.994 75.8211 280.856C74.3019 280.073 71.5831 281.508 70.5007 282.59C70.4355 282.662 69.7444 283.516 69.3728 283.998C69.4641 283.418 69.5619 282.844 69.6336 282.257C69.8422 280.562 69.9987 278.841 70.1682 277.126C70.2204 276.605 70.2791 276.083 70.3312 275.555C70.5529 275.64 73.1479 276.605 74.4258 276.513C75.5668 276.435 76.9881 276.018 77.6467 275.007C77.8111 274.777 77.9253 274.515 77.9817 274.237C78.0381 273.96 78.0354 273.674 77.9739 273.398C77.9124 273.122 77.7934 272.862 77.6247 272.634C77.456 272.407 77.2413 272.218 76.9947 272.08C75.4755 271.297 72.7567 272.732 71.6743 273.814C71.5961 273.899 70.6051 275.118 70.3703 275.457C70.4877 274.31 70.6246 273.155 70.8007 272.034C71.0291 270.51 71.358 269.003 71.7852 267.522C71.883 267.561 74.5953 268.585 75.9058 268.487C77.0403 268.409 78.4617 267.992 79.1202 266.981C79.2847 266.751 79.3988 266.489 79.4552 266.211C79.5116 265.934 79.509 265.648 79.4474 265.372C79.3859 265.096 79.2669 264.835 79.0982 264.608C78.9295 264.381 78.7148 264.192 78.4682 264.054C76.949 263.271 74.2302 264.706 73.1479 265.788C73.0761 265.86 72.3263 266.798 71.9743 267.255L71.8895 267.209C72.3565 265.732 72.9566 264.301 73.6825 262.932C74.0672 262.169 74.4845 261.465 74.9017 260.787C75.3842 261.028 77.6141 262.091 78.8137 262.163C80.0134 262.234 81.4217 261.948 82.1781 261.015C82.3654 260.802 82.5057 260.552 82.5901 260.282C82.6745 260.011 82.7009 259.725 82.6677 259.444C82.6345 259.162 82.5424 258.89 82.3974 258.647C82.2523 258.403 82.0577 258.193 81.826 258.029C80.4046 257.084 77.5423 258.218 76.3492 259.17C76.284 259.222 75.6972 259.822 75.2473 260.259L75.8276 259.359C76.5448 258.283 77.262 257.338 77.9075 256.51C78.2791 256.047 78.6247 255.63 78.9507 255.245C79.5505 255.245 81.9629 255.16 83.0191 254.665C84.0754 254.169 85.2294 253.276 85.4837 252.096C85.5512 251.82 85.5599 251.533 85.5094 251.253C85.4588 250.974 85.3501 250.708 85.1903 250.473C85.0305 250.238 84.8231 250.04 84.5816 249.89C84.3401 249.741 84.0699 249.644 83.7885 249.605C82.0933 249.423 80.0786 251.75 79.4527 253.146C79.4005 253.263 78.8007 255.245 78.8007 255.245C78.4812 255.61 78.1487 256.001 77.7771 256.445C77.1251 257.26 76.3687 258.186 75.6255 259.248C74.816 260.389 74.0736 261.575 73.4021 262.802C72.6423 264.168 72.0052 265.6 71.4983 267.079C71.4983 267.079 71.4983 267.118 71.4983 267.137C71.4983 266.635 71.4983 265.234 71.4983 265.129C71.3027 263.617 70.0313 260.807 68.3557 260.5C68.0754 260.456 67.7889 260.471 67.5149 260.545C67.241 260.619 66.9856 260.749 66.7654 260.928C66.5452 261.107 66.3652 261.33 66.237 261.584C66.1088 261.837 66.0354 262.114 66.0215 262.397C65.9237 263.604 66.7974 264.803 67.645 265.56C68.6034 266.42 71.2636 267.248 71.4722 267.314C70.993 268.831 70.6183 270.38 70.3508 271.949C70.1878 272.862 70.0509 273.788 69.927 274.72C69.927 274.29 69.927 273.899 69.927 273.847C69.7314 272.334 68.4665 269.524 66.7843 269.217C66.5046 269.174 66.2188 269.19 65.9456 269.264C65.6724 269.339 65.4178 269.469 65.1984 269.648C64.9789 269.827 64.7995 270.05 64.6718 270.303C64.544 270.555 64.4707 270.832 64.4567 271.115C64.3589 272.321 65.2261 273.521 66.0802 274.283C66.9343 275.046 69.1902 275.803 69.7901 275.992C69.7509 276.35 69.6988 276.709 69.6597 277.061C69.451 278.776 69.2554 280.49 69.0077 282.16C68.9164 282.753 68.8121 283.327 68.7077 283.907C68.7077 283.522 68.7077 283.196 68.7077 283.151C68.5121 281.638 67.2407 278.828 65.5651 278.521C65.2787 278.453 64.9809 278.449 64.6926 278.508C64.4042 278.567 64.1322 278.688 63.8957 278.863C63.6591 279.038 63.4636 279.263 63.3229 279.522C63.1822 279.78 63.0996 280.066 63.081 280.36C62.9832 281.56 63.8569 282.766 64.7045 283.522C65.5521 284.279 67.5993 284.97 68.31 285.204C68.1861 285.791 68.0623 286.378 67.9188 286.945C67.808 287.33 67.7297 287.708 67.5993 288.086C67.4689 288.464 67.3516 288.836 67.2342 289.208C66.9799 289.912 66.7191 290.642 66.4518 291.327C66.2693 291.796 66.0867 292.246 65.9041 292.702C65.9954 292.116 66.1519 290.968 66.1519 290.87C66.1356 289.528 65.7741 288.212 65.1022 287.05C65.1154 286.902 65.1154 286.754 65.1022 286.606C65.0634 286.323 64.9652 286.052 64.814 285.81C64.6628 285.568 64.462 285.36 64.2249 285.201C63.9877 285.042 63.7196 284.936 63.4381 284.888C63.1567 284.84 62.8683 284.852 62.592 284.924C60.9359 285.361 59.8927 288.256 59.8145 289.781C59.8145 289.873 59.8666 290.851 59.9188 291.47C59.834 291.112 59.7558 290.759 59.6645 290.394C59.495 289.664 59.2994 288.94 59.0907 288.158C58.9799 287.786 58.8691 287.408 58.7517 287.03C58.6343 286.652 58.4844 286.267 58.354 285.876C58.028 284.983 57.6498 284.096 57.2521 283.209C57.9041 283.053 60.1535 282.479 61.0598 281.781C61.9661 281.084 62.9245 279.956 62.918 278.75C62.9253 278.466 62.8729 278.184 62.7641 277.922C62.6554 277.66 62.4927 277.424 62.2867 277.229C62.0807 277.034 61.8359 276.885 61.5684 276.791C61.3008 276.697 61.0165 276.66 60.7338 276.683C59.0321 276.865 57.5585 279.571 57.2521 281.064C57.2521 281.155 57.1347 282.251 57.0891 282.857C56.8479 282.323 56.6066 281.794 56.3458 281.266C55.583 279.734 54.768 278.215 53.966 276.702L53.2293 275.301C53.4575 275.248 56.1633 274.649 57.1804 273.84C58.0801 273.149 59.0386 272.014 59.0321 270.808C59.0404 270.524 58.9887 270.242 58.8803 269.98C58.7719 269.717 58.6092 269.481 58.403 269.286C58.1968 269.09 57.9516 268.941 57.6836 268.847C57.4156 268.753 57.1308 268.717 56.8479 268.741C55.1527 268.924 53.6791 271.63 53.3727 273.123C53.3727 273.234 53.2032 274.812 53.1901 275.216C52.6555 274.186 52.1274 273.155 51.6514 272.119C51.0059 270.721 50.4506 269.284 49.9888 267.816C50.0931 267.816 52.9163 267.164 53.9595 266.349C54.8593 265.657 55.8177 264.523 55.8112 263.317C55.8184 263.033 55.766 262.751 55.6573 262.489C55.5486 262.226 55.386 261.99 55.1801 261.794C54.9742 261.599 54.7296 261.449 54.4621 261.354C54.1945 261.259 53.91 261.221 53.627 261.243C51.9318 261.432 50.4583 264.138 50.1518 265.631C50.1518 265.729 50.0214 266.935 49.9823 267.503H49.8845C49.4584 266.011 49.1682 264.483 49.0173 262.939C48.9195 262.091 48.8739 261.276 48.8543 260.481C49.389 260.415 51.847 260.089 52.8641 259.47C53.8813 258.851 54.9114 257.86 55.0353 256.66C55.075 256.378 55.0544 256.09 54.9748 255.817C54.8952 255.543 54.7585 255.289 54.5736 255.072C54.3887 254.855 54.16 254.68 53.9024 254.558C53.6448 254.436 53.3642 254.37 53.0793 254.365C51.3711 254.365 49.6107 256.888 49.1673 258.335C49.1673 258.42 48.9717 259.248 48.8543 259.855C48.8543 259.496 48.8543 259.124 48.8543 258.779C48.8543 257.475 48.9326 256.308 49.0173 255.258C49.0695 254.665 49.1217 254.13 49.1869 253.628C49.6759 253.289 51.6514 251.894 52.2643 250.896C52.8772 249.899 53.3401 248.523 52.9163 247.401C52.8208 247.134 52.6703 246.89 52.4745 246.684C52.2786 246.479 52.0418 246.317 51.7794 246.209C51.517 246.101 51.2348 246.049 50.951 246.056C50.6673 246.064 50.3884 246.132 50.1323 246.254C48.6196 247.043 48.2154 250.094 48.4697 251.6C48.4697 251.731 49.063 253.726 49.0891 253.706H49.1217C49.0499 254.189 48.9847 254.704 48.9261 255.271C48.8217 256.314 48.7174 257.501 48.6848 258.798C48.638 260.194 48.6706 261.592 48.7826 262.984C48.9017 264.536 49.1591 266.075 49.552 267.581V267.633C49.2847 267.209 48.4892 266.055 48.4175 265.977C47.4199 264.823 44.8185 263.18 43.2471 263.845C42.989 263.963 42.7586 264.135 42.5708 264.348C42.3831 264.561 42.2423 264.811 42.1575 265.082C42.0727 265.353 42.0457 265.639 42.0784 265.921C42.1111 266.204 42.2028 266.476 42.3474 266.72C42.9211 267.776 44.336 268.298 45.4379 268.461Z" fill="#263238"/>
<path opacity="0.3" d="M44.4078 259.777C45.6335 260.312 48.6262 260.246 48.6327 260.246C48.6393 260.246 47.9807 258.29 47.9286 258.166C47.2766 256.791 45.1902 254.515 43.5015 254.743C43.2215 254.79 42.9543 254.895 42.7173 255.051C42.4804 255.207 42.2788 255.412 42.1258 255.651C41.9728 255.89 41.8717 256.158 41.829 256.439C41.7863 256.72 41.803 257.006 41.878 257.28C42.1584 258.453 43.3646 259.32 44.4078 259.777Z" fill="#263238"/>
<path opacity="0.3" d="M74.7258 260.435C74.7258 260.435 75.2735 258.446 75.2931 258.316C75.5017 256.803 75.0192 253.752 73.4805 253.021C73.222 252.905 72.9418 252.844 72.6582 252.843C72.3746 252.842 72.094 252.9 71.8344 253.014C71.5749 253.129 71.3424 253.297 71.152 253.507C70.9615 253.717 70.8174 253.965 70.7291 254.234C70.3183 255.369 70.8399 256.757 71.4593 257.716C72.1895 258.844 74.7258 260.435 74.7258 260.435Z" fill="#263238"/>
<path opacity="0.3" d="M45.4379 268.461C46.7419 268.644 49.389 267.868 49.5976 267.809C50.0381 269.339 50.5804 270.837 51.2211 272.295C51.5906 273.164 51.9818 274.012 52.3947 274.838C52.1535 274.486 51.9318 274.186 51.8927 274.127C50.8951 272.973 48.2936 271.33 46.7223 271.995C46.4641 272.113 46.2337 272.285 46.046 272.498C45.8583 272.711 45.7175 272.961 45.6326 273.232C45.5478 273.503 45.5209 273.789 45.5536 274.071C45.5863 274.354 45.6779 274.626 45.8225 274.87C46.4028 275.926 47.7785 276.448 48.9195 276.611C50.0605 276.774 52.3621 276.161 52.9685 275.992C53.1249 276.311 53.2814 276.644 53.4444 276.957C54.2203 278.502 54.9962 280.034 55.7134 281.566C55.9677 282.107 56.2024 282.649 56.4306 283.183C56.2154 282.87 56.0263 282.603 55.9937 282.564C54.9962 281.41 52.3947 279.767 50.8234 280.438C50.5654 280.556 50.3351 280.727 50.1474 280.939C49.9598 281.152 49.8189 281.402 49.7341 281.672C49.6492 281.943 49.6222 282.228 49.6549 282.51C49.6875 282.791 49.7791 283.063 49.9236 283.307C50.5039 284.363 51.8796 284.885 53.0206 285.054C54.1616 285.224 56.235 284.663 56.9326 284.461C57.1543 285.022 57.376 285.583 57.5846 286.137C57.702 286.515 57.8454 286.874 57.9432 287.258C58.041 287.643 58.1584 288.021 58.2627 288.399C58.4387 289.129 58.6213 289.879 58.7778 290.596C58.8886 291.092 58.9799 291.568 59.0777 292.044C58.8299 291.509 58.3279 290.46 58.2757 290.381C57.4673 289.077 55.1396 287.069 53.4835 287.493C53.2125 287.572 52.9611 287.708 52.7457 287.891C52.5302 288.073 52.3554 288.299 52.2325 288.553C52.1097 288.808 52.0415 289.085 52.0323 289.367C52.0232 289.649 52.0734 289.93 52.1795 290.192C52.5968 291.327 53.8943 292.05 54.9831 292.389C56.1828 292.755 58.8365 292.389 59.169 292.389C59.3255 293.178 59.4754 293.954 59.5993 294.685C59.8666 296.21 60.0753 297.592 60.2513 298.773H61.3662C61.1706 297.547 60.9294 296.106 60.6099 294.502C60.4469 293.693 60.2643 292.833 60.0687 291.953C60.8675 291.633 61.6469 291.268 62.4029 290.857C63.2766 291.803 65.5129 292.911 65.8063 293.055C65.4999 293.804 65.1935 294.528 64.9001 295.206C64.3198 296.549 63.7656 297.742 63.2701 298.773H64.4763C64.8935 297.827 65.3565 296.771 65.8324 295.604C66.1454 294.841 66.4844 294.026 66.7843 293.178C67.1038 293.25 69.7314 293.785 70.9571 293.504C72.0655 293.257 73.4152 292.624 73.9107 291.548C74.0371 291.294 74.1084 291.016 74.1201 290.732C74.1317 290.448 74.0833 290.165 73.9781 289.901C73.8729 289.637 73.7132 289.398 73.5095 289.2C73.3058 289.002 73.0626 288.849 72.7958 288.751C71.1788 288.21 68.7077 290.055 67.8015 291.275C67.7493 291.346 67.2538 292.2 66.9539 292.742C67.0843 292.396 67.2147 292.09 67.3385 291.705C67.5993 291.001 67.8341 290.29 68.0949 289.527C68.2057 289.156 68.3165 288.777 68.4339 288.393C68.5513 288.008 68.6295 287.61 68.7338 287.213C68.9555 286.287 69.1315 285.341 69.2945 284.383C69.9074 284.605 72.1112 285.374 73.2522 285.296C74.3932 285.217 75.8145 284.794 76.4731 283.783C76.6375 283.553 76.7517 283.291 76.8081 283.013C76.8645 282.736 76.8618 282.45 76.8003 282.174C76.7388 281.898 76.6198 281.638 76.4511 281.41C76.2824 281.183 76.0677 280.994 75.8211 280.856C74.3019 280.073 71.5831 281.508 70.5007 282.59C70.4355 282.662 69.7444 283.516 69.3728 283.998C69.4641 283.418 69.5619 282.844 69.6336 282.257C69.8422 280.562 69.9987 278.841 70.1682 277.126C70.2204 276.605 70.2791 276.083 70.3312 275.555C70.5529 275.64 73.1479 276.605 74.4258 276.513C75.5668 276.435 76.9881 276.018 77.6467 275.007C77.8111 274.777 77.9253 274.515 77.9817 274.237C78.0381 273.96 78.0354 273.674 77.9739 273.398C77.9124 273.122 77.7934 272.862 77.6247 272.634C77.456 272.407 77.2413 272.218 76.9947 272.08C75.4755 271.297 72.7567 272.732 71.6743 273.814C71.5961 273.899 70.6051 275.118 70.3703 275.457C70.4877 274.31 70.6246 273.155 70.8007 272.034C71.0291 270.51 71.358 269.003 71.7852 267.522C71.883 267.561 74.5953 268.585 75.9058 268.487C77.0403 268.409 78.4617 267.992 79.1202 266.981C79.2847 266.751 79.3988 266.489 79.4552 266.211C79.5116 265.934 79.509 265.648 79.4474 265.372C79.3859 265.096 79.2669 264.835 79.0982 264.608C78.9295 264.381 78.7148 264.192 78.4682 264.054C76.949 263.271 74.2302 264.706 73.1479 265.788C73.0761 265.86 72.3263 266.798 71.9743 267.255L71.8895 267.209C72.3565 265.732 72.9566 264.301 73.6825 262.932C74.0672 262.169 74.4845 261.465 74.9017 260.787C75.3842 261.028 77.6141 262.091 78.8137 262.163C80.0134 262.234 81.4217 261.948 82.1781 261.015C82.3654 260.802 82.5057 260.552 82.5901 260.282C82.6745 260.011 82.7009 259.725 82.6677 259.444C82.6345 259.162 82.5424 258.89 82.3974 258.647C82.2523 258.403 82.0577 258.193 81.826 258.029C80.4046 257.084 77.5423 258.218 76.3492 259.17C76.284 259.222 75.6972 259.822 75.2473 260.259L75.8276 259.359C76.5448 258.283 77.262 257.338 77.9075 256.51C78.2791 256.047 78.6247 255.63 78.9507 255.245C79.5505 255.245 81.9629 255.16 83.0191 254.665C84.0754 254.169 85.2294 253.276 85.4837 252.096C85.5512 251.82 85.5599 251.533 85.5094 251.253C85.4588 250.974 85.3501 250.708 85.1903 250.473C85.0305 250.238 84.8231 250.04 84.5816 249.89C84.3401 249.741 84.0699 249.644 83.7885 249.605C82.0933 249.423 80.0786 251.75 79.4527 253.146C79.4005 253.263 78.8007 255.245 78.8007 255.245C78.4812 255.61 78.1487 256.001 77.7771 256.445C77.1251 257.26 76.3687 258.186 75.6255 259.248C74.816 260.389 74.0736 261.575 73.4021 262.802C72.6423 264.168 72.0052 265.6 71.4983 267.079C71.4983 267.079 71.4983 267.118 71.4983 267.137C71.4983 266.635 71.4983 265.234 71.4983 265.129C71.3027 263.617 70.0313 260.807 68.3557 260.5C68.0754 260.456 67.7889 260.471 67.5149 260.545C67.241 260.619 66.9856 260.749 66.7654 260.928C66.5452 261.107 66.3652 261.33 66.237 261.584C66.1088 261.837 66.0354 262.114 66.0215 262.397C65.9237 263.604 66.7974 264.803 67.645 265.56C68.6034 266.42 71.2636 267.248 71.4722 267.314C70.993 268.831 70.6183 270.38 70.3508 271.949C70.1878 272.862 70.0509 273.788 69.927 274.72C69.927 274.29 69.927 273.899 69.927 273.847C69.7314 272.334 68.4665 269.524 66.7843 269.217C66.5046 269.174 66.2188 269.19 65.9456 269.264C65.6724 269.339 65.4178 269.469 65.1984 269.648C64.9789 269.827 64.7995 270.05 64.6718 270.303C64.544 270.555 64.4707 270.832 64.4567 271.115C64.3589 272.321 65.2261 273.521 66.0802 274.283C66.9343 275.046 69.1902 275.803 69.7901 275.992C69.7509 276.35 69.6988 276.709 69.6597 277.061C69.451 278.776 69.2554 280.49 69.0077 282.16C68.9164 282.753 68.8121 283.327 68.7077 283.907C68.7077 283.522 68.7077 283.196 68.7077 283.151C68.5121 281.638 67.2407 278.828 65.5651 278.521C65.2787 278.453 64.9809 278.449 64.6926 278.508C64.4042 278.567 64.1322 278.688 63.8957 278.863C63.6591 279.038 63.4636 279.263 63.3229 279.522C63.1822 279.78 63.0996 280.066 63.081 280.36C62.9832 281.56 63.8569 282.766 64.7045 283.522C65.5521 284.279 67.5993 284.97 68.31 285.204C68.1861 285.791 68.0623 286.378 67.9188 286.945C67.808 287.33 67.7297 287.708 67.5993 288.086C67.4689 288.464 67.3516 288.836 67.2342 289.208C66.9799 289.912 66.7191 290.642 66.4518 291.327C66.2693 291.796 66.0867 292.246 65.9041 292.702C65.9954 292.116 66.1519 290.968 66.1519 290.87C66.1356 289.528 65.7741 288.212 65.1022 287.05C65.1154 286.902 65.1154 286.754 65.1022 286.606C65.0634 286.323 64.9652 286.052 64.814 285.81C64.6628 285.568 64.462 285.36 64.2249 285.201C63.9877 285.042 63.7196 284.936 63.4381 284.888C63.1567 284.84 62.8683 284.852 62.592 284.924C60.9359 285.361 59.8927 288.256 59.8145 289.781C59.8145 289.873 59.8666 290.851 59.9188 291.47C59.834 291.112 59.7558 290.759 59.6645 290.394C59.495 289.664 59.2994 288.94 59.0907 288.158C58.9799 287.786 58.8691 287.408 58.7517 287.03C58.6343 286.652 58.4844 286.267 58.354 285.876C58.028 284.983 57.6498 284.096 57.2521 283.209C57.9041 283.053 60.1535 282.479 61.0598 281.781C61.9661 281.084 62.9245 279.956 62.918 278.75C62.9253 278.466 62.8729 278.184 62.7641 277.922C62.6554 277.66 62.4927 277.424 62.2867 277.229C62.0807 277.034 61.8359 276.885 61.5684 276.791C61.3008 276.697 61.0165 276.66 60.7338 276.683C59.0321 276.865 57.5585 279.571 57.2521 281.064C57.2521 281.155 57.1347 282.251 57.0891 282.857C56.8479 282.323 56.6066 281.794 56.3458 281.266C55.583 279.734 54.768 278.215 53.966 276.702L53.2293 275.301C53.4575 275.248 56.1633 274.649 57.1804 273.84C58.0801 273.149 59.0386 272.014 59.0321 270.808C59.0404 270.524 58.9887 270.242 58.8803 269.98C58.7719 269.717 58.6092 269.481 58.403 269.286C58.1968 269.09 57.9516 268.941 57.6836 268.847C57.4156 268.753 57.1308 268.717 56.8479 268.741C55.1527 268.924 53.6791 271.63 53.3727 273.123C53.3727 273.234 53.2032 274.812 53.1901 275.216C52.6555 274.186 52.1274 273.155 51.6514 272.119C51.0059 270.721 50.4506 269.284 49.9888 267.816C50.0931 267.816 52.9163 267.164 53.9595 266.349C54.8593 265.657 55.8177 264.523 55.8112 263.317C55.8184 263.033 55.766 262.751 55.6573 262.489C55.5486 262.226 55.386 261.99 55.1801 261.794C54.9742 261.599 54.7296 261.449 54.4621 261.354C54.1945 261.259 53.91 261.221 53.627 261.243C51.9318 261.432 50.4583 264.138 50.1518 265.631C50.1518 265.729 50.0214 266.935 49.9823 267.503H49.8845C49.4584 266.011 49.1682 264.483 49.0173 262.939C48.9195 262.091 48.8739 261.276 48.8543 260.481C49.389 260.415 51.847 260.089 52.8641 259.47C53.8813 258.851 54.9114 257.86 55.0353 256.66C55.075 256.378 55.0544 256.09 54.9748 255.817C54.8952 255.543 54.7585 255.289 54.5736 255.072C54.3887 254.855 54.16 254.68 53.9024 254.558C53.6448 254.436 53.3642 254.37 53.0793 254.365C51.3711 254.365 49.6107 256.888 49.1673 258.335C49.1673 258.42 48.9717 259.248 48.8543 259.855C48.8543 259.496 48.8543 259.124 48.8543 258.779C48.8543 257.475 48.9326 256.308 49.0173 255.258C49.0695 254.665 49.1217 254.13 49.1869 253.628C49.6759 253.289 51.6514 251.894 52.2643 250.896C52.8772 249.899 53.3401 248.523 52.9163 247.401C52.8208 247.134 52.6703 246.89 52.4745 246.684C52.2786 246.479 52.0418 246.317 51.7794 246.209C51.517 246.101 51.2348 246.049 50.951 246.056C50.6673 246.064 50.3884 246.132 50.1323 246.254C48.6196 247.043 48.2154 250.094 48.4697 251.6C48.4697 251.731 49.063 253.726 49.0891 253.706H49.1217C49.0499 254.189 48.9847 254.704 48.9261 255.271C48.8217 256.314 48.7174 257.501 48.6848 258.798C48.638 260.194 48.6706 261.592 48.7826 262.984C48.9017 264.536 49.1591 266.075 49.552 267.581V267.633C49.2847 267.209 48.4892 266.055 48.4175 265.977C47.4199 264.823 44.8185 263.18 43.2471 263.845C42.989 263.963 42.7586 264.135 42.5708 264.348C42.3831 264.561 42.2423 264.811 42.1575 265.082C42.0727 265.353 42.0457 265.639 42.0784 265.921C42.1111 266.204 42.2028 266.476 42.3474 266.72C42.9211 267.776 44.336 268.298 45.4379 268.461Z" fill="#263238"/>
<path d="M220.611 289.325L225.175 297.651C226.843 298.029 228.591 297.797 230.104 296.999C232.653 295.637 235.372 293.596 237.243 292.918C239.114 292.24 244.722 288.667 246.254 285.948C247.786 283.229 248.288 281.384 245.739 282.036C243.563 282.634 241.35 283.087 239.114 283.392C236.735 283.738 231.805 283.392 231.805 283.392L220.611 289.325Z" fill="white" stroke="#263238" stroke-miterlimit="10"/>
<path d="M162.015 286.716C163.355 288.741 165.089 290.476 167.114 291.815C170.178 293.686 175.277 294.879 174.938 296.575C174.599 298.27 171.026 299.632 167.466 299.124C162.677 298.23 157.961 296.981 153.357 295.388C151.316 294.534 150.129 294.364 150.129 293.008C150.129 291.652 153.872 282.133 153.872 282.133L162.015 286.716Z" fill="white" stroke="#263238" stroke-miterlimit="10"/>
<path d="M181.517 135.616C181.517 135.616 175.225 142.723 172.839 147.352C170.452 151.981 160.672 167.166 162.035 169.455C163.398 171.744 170.413 179.059 173.999 181.517C177.585 183.975 180.715 186.622 180.715 186.622L183.427 184.575C183.427 184.575 178.485 177.612 175.603 172.885C172.721 168.158 170.987 165.713 170.987 165.713C170.987 165.713 178.954 155.933 180.982 153.383C183.01 150.834 183.72 139.691 183.812 138.694C183.903 137.696 183.121 134.312 181.517 135.616Z" fill="white" stroke="#263238" stroke-miterlimit="10"/>
<path d="M203.333 101.125C203.333 101.125 205.556 103.518 205.745 106.054C205.934 108.59 205.263 111.035 206.873 112.111C208.483 113.187 210.374 113.415 209.409 114.139C208.444 114.862 206.664 116.212 206.664 116.212C206.664 116.212 205.875 123.938 205.054 124.342C204.232 124.747 197.471 125.588 197.471 125.588C197.471 125.588 195.052 129.682 195.567 132.03C196.082 134.377 200.229 142.083 202.791 146.836C205.354 151.59 205.497 153.448 204.48 158.129C203.463 162.81 200.255 182.709 200.425 185.937C200.594 189.164 202.974 193.924 202.974 193.924C202.974 193.924 216.575 231.316 218.1 235.561C219.626 239.805 219.124 249.839 220.141 253.575C221.158 257.311 227.789 270.403 228.813 272.783C229.836 275.163 233.696 280.314 233.696 280.314L234.544 282.016C234.544 282.016 232.164 284.056 229.445 286.091C227.263 287.702 224.843 288.964 222.273 289.833C221.087 290.172 219.554 290.681 219.554 290.681C219.554 290.681 214.338 281.448 212.291 276.519C210.244 271.59 206.853 266.152 206.175 259.02C205.497 251.887 203.287 245.419 201.416 239.812C199.545 234.204 193.429 224.346 193.429 224.346C193.429 224.346 188.5 244.063 184.588 248.822C180.676 253.582 175.075 266.322 171.502 272.783C167.929 279.245 166.234 280.77 165.895 283.828C165.703 285.624 165.305 287.392 164.708 289.096C164.708 289.096 158.755 287.91 155.698 285.869C153.674 284.473 151.796 282.879 150.09 281.109C150.09 281.109 158.566 262.925 162.667 254.938C166.768 246.951 171.672 229.275 171.841 228.082C172.011 226.889 173.712 216.868 174.39 214.657C175.068 212.447 175.244 212.278 175.075 211.091C174.905 209.904 170.315 202.765 172.18 195.795C174.045 188.825 179.117 181.986 179.117 181.986C179.117 181.986 182.09 171.554 182.064 168.815C182.038 166.077 179.183 159.824 178.394 153.748C177.605 147.671 177.983 138.954 180.728 134.657C183.473 130.36 187.9 123.573 188.148 122.015C188.395 120.457 189.236 118.351 187.143 113.056C185.051 107.762 189.986 103.133 193.422 101.17C196.858 99.2078 203.333 101.125 203.333 101.125Z" fill="white" stroke="#263238" stroke-miterlimit="10"/>
<path d="M203.841 112.417C204.162 112.417 204.422 111.769 204.422 110.97C204.422 110.171 204.162 109.522 203.841 109.522C203.521 109.522 203.261 110.171 203.261 110.97C203.261 111.769 203.521 112.417 203.841 112.417Z" fill="#263238"/>
<path d="M202.302 108.565C202.302 108.565 203.457 107.215 204.617 108.369" stroke="#263238" stroke-miterlimit="10"/>
<path d="M206.156 118.782C205.573 118.86 204.98 118.753 204.462 118.476C203.943 118.199 203.525 117.765 203.268 117.236" stroke="#263238" stroke-miterlimit="10"/>
<path d="M199.069 202.42L193.97 222.306" stroke="#263238" stroke-miterlimit="10"/>
<path d="M211.646 248.646C211.646 248.646 210.596 262.586 209.944 267.32" stroke="#263238" stroke-miterlimit="10"/>
<path d="M213.686 256.64C213.686 256.64 212.154 267.685 212.154 268.702" stroke="#263238" stroke-miterlimit="10"/>
<path d="M194.126 112.542C194.126 112.542 191.258 108.323 189.093 111.381C186.928 114.439 188.871 117.529 190.091 117.953C190.387 118.082 190.706 118.149 191.029 118.149C191.353 118.149 191.672 118.082 191.968 117.953C191.245 120.114 190.189 122.149 188.839 123.984C186.668 126.873 180.91 129.683 176.242 128.835C171.574 127.987 162.778 119.603 164.467 112.489C166.156 105.376 167.942 101.842 169.976 101.686C172.011 101.529 173.236 104.176 175.603 104C177.97 103.824 180.871 94.579 189.256 92.7664C197.641 90.9539 204.761 95.0289 205.654 97.8585C206.547 100.688 205.302 102.318 204.454 102.377C203.607 102.436 200.236 100.643 198.286 101.979C196.337 103.316 197.634 104.757 197.895 105.93C198.156 107.104 196.18 108.101 196.272 109.288C196.363 110.475 196.63 111.818 195.952 111.896C195.314 112.018 194.699 112.235 194.126 112.542Z" fill="#263238" stroke="#263238" stroke-miterlimit="10"/>
<path d="M202.772 146.836C202.12 145.617 201.351 144.228 200.575 142.735C200.32 142.863 200.044 142.943 199.76 142.97C197.556 143.133 192.588 135.831 187.606 132.962C185.246 131.599 183.388 131.886 182.084 132.564C181.856 132.929 181.628 133.281 181.432 133.627C182.442 133.191 183.544 133.011 184.64 133.102C185.736 133.193 186.793 133.552 187.717 134.148C192.536 137.03 196.389 143.048 197.38 147.234C198.371 151.42 193.592 158.253 187.235 159.915C183.218 160.965 180.578 159.387 178.876 156.31C179.972 161.526 182.077 166.475 182.136 168.815C182.136 171.541 179.189 181.986 179.189 181.986C179.189 181.986 178.928 182.442 178.537 183.224C186.563 185.585 196.695 186.719 200.62 185.937C201.051 179.86 203.659 162.165 204.532 158.129C205.497 153.448 205.38 151.589 202.772 146.836Z" fill="#263238" stroke="#263238" stroke-miterlimit="10"/>
<path d="M185.546 134.82C185.546 134.82 190.162 134.99 192.47 138.563C194.779 142.136 205.269 157.217 206.736 158.644C208.203 160.072 210.27 162.641 210.27 162.641C210.27 162.641 226.603 153.083 229.504 150.827C232.405 148.571 235.176 144.613 235.176 144.613C235.176 144.613 235.489 141.862 235.594 141.001C235.698 140.141 238.241 139.952 238.241 139.952C238.241 139.952 239.956 137.78 241.325 137.852C242.694 137.924 243.013 139.939 243.013 139.939C243.013 139.939 244.78 143.049 244.891 144.574C245.002 146.1 241.84 149.399 240.523 150.012C239.277 150.497 237.992 150.877 236.683 151.146C236.683 151.146 226.172 163.339 222.691 167.01C219.563 170.151 216.041 172.873 212.213 175.107C210.909 175.72 205.582 173.041 204.702 172.597C203.822 172.154 181.471 151.14 181.471 151.14" fill="white"/>
<path d="M185.546 134.82C185.546 134.82 190.162 134.99 192.47 138.563C194.779 142.136 205.269 157.217 206.736 158.644C208.203 160.072 210.27 162.641 210.27 162.641C210.27 162.641 226.603 153.083 229.504 150.827C232.405 148.571 235.176 144.613 235.176 144.613C235.176 144.613 235.489 141.862 235.594 141.001C235.698 140.141 238.241 139.952 238.241 139.952C238.241 139.952 239.956 137.78 241.325 137.852C242.694 137.924 243.013 139.939 243.013 139.939C243.013 139.939 244.78 143.049 244.891 144.574C245.002 146.1 241.84 149.399 240.523 150.012C239.277 150.497 237.992 150.877 236.683 151.146C236.683 151.146 226.172 163.339 222.691 167.01C219.563 170.151 216.041 172.873 212.213 175.107C210.909 175.72 205.582 173.041 204.702 172.597C203.822 172.154 181.471 151.14 181.471 151.14" stroke="#263238" stroke-miterlimit="10"/>
<path d="M149.96 142.084C149.96 142.084 155.697 151.147 158.286 155.033C160.423 158.037 162.774 160.883 165.321 163.548C165.321 163.548 169.944 159.473 173.647 155.776C177.35 152.079 179.195 145.781 179.195 145.781C179.195 145.781 176.972 141.869 176.972 141.158C176.972 140.447 179.013 138.198 179.58 137.644C179.784 137.476 180.023 137.356 180.278 137.292C180.534 137.228 180.801 137.221 181.06 137.272C181.323 137.005 181.641 136.799 181.993 136.67C182.345 136.542 182.721 136.493 183.094 136.529C184.574 136.529 188.089 140.05 188.46 142.638C188.832 145.226 186.244 148.004 185.129 149.667C184.014 151.329 179.026 160.588 176.985 165.028C174.944 169.468 168.105 177.057 165.901 177.416C163.697 177.774 152.946 168.718 151.648 167.055C150.351 165.393 151.648 151.883 150.723 149.66C149.797 147.437 149.96 142.084 149.96 142.084Z" fill="white" stroke="#263238" stroke-miterlimit="10"/>
<path d="M181.067 137.271C181.067 137.271 185.69 140.786 183.844 141.529C183.601 141.634 183.338 141.688 183.073 141.689C182.808 141.689 182.545 141.636 182.301 141.531C182.057 141.427 181.837 141.274 181.654 141.082C181.471 140.89 181.329 140.663 181.236 140.414C181.236 140.414 183.088 142.637 182.351 144.489" stroke="#263238" stroke-miterlimit="10"/>
<path d="M182.729 141.895C182.729 141.895 185.337 144.503 186.641 144.672" stroke="#263238" stroke-miterlimit="10"/>
<path d="M124.63 208.145C124.63 208.145 118.521 231.617 116.486 234.225C114.452 236.833 104.646 245.511 102.794 250.525C100.943 255.538 91.9776 275.301 90.8692 278.45C89.7608 281.599 88.835 282.518 88.835 282.518L96.6068 286.776C96.6068 286.776 104.829 271.617 109.269 266.068C113.709 260.52 119.446 251.815 123.521 247.747C127.596 243.679 139.619 226.837 139.619 226.837L124.63 208.145Z" fill="white" stroke="#263238" stroke-miterlimit="10"/>
<path d="M139.619 226.831L124.623 208.145C124.623 208.145 119.225 228.917 116.884 233.573C120.029 237.305 124.255 239.968 128.979 241.194C133.875 234.863 139.619 226.831 139.619 226.831Z" fill="#263238" stroke="#263238" stroke-miterlimit="10"/>
<path d="M96.6067 286.768C96.6067 286.768 98.5105 283.411 100.747 278.944C97.7088 278.049 94.8165 276.718 92.16 274.993C91.508 276.864 91.1103 277.745 90.856 278.442C89.7411 281.591 88.8218 282.511 88.8218 282.511L96.6067 286.768Z" fill="white" stroke="#263238" stroke-miterlimit="10"/>
<path d="M99.9318 289.729C99.9318 289.729 99.1951 289.364 99.006 286.397C98.8169 283.431 98.4518 281.403 97.3434 283.255L96.235 285.106L89.0173 280.849C89.0173 280.849 87.7133 281.957 87.7133 283.072C87.7133 284.187 82.5364 289.175 83.6449 290.655C84.7533 292.135 88.6392 292.135 92.5251 294.73C96.411 297.325 97.1543 298.642 101.966 298.798C106.778 298.955 107.697 297.318 107.697 296.392C107.697 295.466 103.785 293.986 102.52 292.689C101.605 291.75 100.741 290.761 99.9318 289.729Z" fill="white" stroke="#263238" stroke-miterlimit="10"/>
<path d="M107.704 296.392C107.704 296.158 107.463 295.897 107.052 295.604C106.106 296.21 104.007 297.084 100.095 296.575C94.3573 295.838 94.3573 294.169 91.2147 291.398C89.1022 289.533 85.9987 288.673 84.1731 288.308C83.5798 289.292 83.2603 290.166 83.6254 290.655C84.7338 292.135 88.6197 292.135 92.5057 294.73C96.3916 297.325 97.1349 298.642 101.947 298.798C106.758 298.955 107.704 297.312 107.704 296.392Z" fill="white" stroke="#263238" stroke-miterlimit="10"/>
<path d="M122.406 194.635C122.406 194.635 120.372 201.292 124.075 210.733C127.779 220.174 142.944 236.637 147.756 240.725L152.568 244.8C152.568 244.8 153.311 255.884 158.677 263.486L176.992 289.396L183.101 284.767C183.101 284.767 178.107 278.847 176.627 273.11C175.147 267.372 167.186 250.166 165.895 244.422C164.604 238.677 159.785 228.695 159.231 227.769C158.677 226.844 148.656 207.988 148.656 207.988L150.162 198.86L122.406 194.635Z" fill="white" stroke="#263238" stroke-miterlimit="10"/>
<path d="M147.085 240.118C148.532 238.162 152.698 233.722 161.559 232.627C160.424 230.084 159.459 228.141 159.231 227.756C158.677 226.83 148.656 207.987 148.656 207.987L150.162 198.859L122.406 194.608C122.406 194.608 120.372 201.265 124.075 210.706C127.616 219.769 141.673 235.248 147.085 240.118Z" fill="#263238" stroke="#263238" stroke-miterlimit="10"/>
<path d="M171.196 281.168C174.456 285.804 176.992 289.377 176.992 289.377L183.101 284.748C181.11 282.302 179.404 279.638 178.015 276.807C175.993 278.619 173.689 280.092 171.196 281.168Z" fill="white" stroke="#263238" stroke-miterlimit="10"/>
<path d="M182.729 279.564C182.729 279.564 179.958 276.956 180.324 280.308C180.689 283.659 181.804 284.748 181.804 284.748C181.804 284.748 174.221 288.262 174.958 289.931C175.397 290.921 175.958 291.851 176.627 292.702C176.627 292.702 181.256 299.92 183.284 299.183C185.311 298.446 188.839 293.817 191.981 292.337C195.124 290.857 199.016 285.856 199.942 282.896C200.868 279.936 200.307 278.828 198.091 280.119C195.874 281.41 192.907 283.085 189.575 283.085C187.523 283.056 185.526 282.411 183.844 281.233L182.729 279.564Z" fill="white" stroke="#263238" stroke-miterlimit="10"/>
<path d="M199.427 279.597C199.41 279.648 199.397 279.7 199.388 279.753C198.273 284.748 191.981 288.262 189.021 291.04C186.596 293.309 181.947 296.451 180.337 297.514C181.432 298.642 182.534 299.47 183.284 299.183C185.324 298.44 188.839 293.817 191.981 292.337C195.124 290.857 199.016 285.856 199.942 282.896C200.64 280.666 200.49 279.486 199.427 279.597Z" fill="white" stroke="#263238" stroke-miterlimit="10"/>
<path d="M156.2 98.3212C157.212 100.185 157.888 102.214 158.195 104.313C158.625 107.573 158.482 109.457 159.766 111.029C161.05 112.6 162.198 113.598 161.911 114.452C161.624 115.306 159.623 116.31 159.623 116.31C159.623 116.31 157.914 123.306 156.363 124.447C154.811 125.588 149.504 124.166 149.504 124.166C148.223 126.111 147.576 128.405 147.652 130.732C147.795 134.585 150.912 140.584 152.79 146.152C154.667 151.72 154.935 156.434 153.076 163.86C151.218 171.287 150.508 187.28 150.651 191.564C150.794 195.847 150.788 198.129 150.788 198.129C150.788 198.129 152.933 200.555 143.081 200.555C133.23 200.555 123.945 196.845 122.948 196.415C122.385 196.212 121.919 195.805 121.644 195.274C121.644 195.274 123.926 170.282 123.215 168.287C122.504 166.292 121.787 157.132 121.787 157.132C121.787 157.132 122.067 141.562 126.494 135.707C130.922 129.852 136.066 127.283 137.917 124.284C139.032 122.341 139.438 120.071 139.065 117.862C135.747 115.129 133.271 111.512 131.926 107.43C129.637 100.577 136.066 93.1508 140.773 91.4361C145.481 89.7213 155.195 92.0098 156.623 93.7246C158.051 95.4393 156.2 98.3212 156.2 98.3212Z" fill="white" stroke="#263238" stroke-miterlimit="10"/>
<path d="M156.623 93.751C155.196 92.0362 145.487 89.7477 140.773 91.4624C136.059 93.1772 129.637 100.59 131.926 107.456C133.271 111.538 135.747 115.155 139.065 117.888C139.065 117.888 139.104 118.09 139.143 118.436C140.346 118.075 141.513 117.605 142.631 117.034C142.062 116.61 141.536 116.132 141.06 115.606C140.636 115.032 139.489 111.042 141.777 110.318C144.066 109.595 144.633 111.179 145.037 112.033C145.442 112.887 146.609 112.033 147.039 111.603C147.469 111.172 147.182 107.893 147.182 107.893C148.256 107.074 149.259 106.167 150.182 105.181C151.486 103.753 146.609 100.467 146.609 100.467C146.609 100.467 150.182 100.323 152.04 100.036C153.504 99.6979 154.903 99.1208 156.18 98.328C156.18 98.328 158.051 95.4657 156.623 93.751Z" fill="#263238" stroke="#263238" stroke-miterlimit="10"/>
<path d="M149.484 124.167L145.917 122.452L148.343 126.305L149.484 124.167Z" fill="#263238" stroke="#263238" stroke-miterlimit="10"/>
<path d="M157.627 110.129C157.686 110.918 157.51 111.57 157.236 111.596C156.962 111.622 156.688 110.996 156.63 110.207C156.571 109.418 156.741 108.766 157.014 108.747C157.288 108.727 157.562 109.346 157.627 110.129Z" fill="#263238"/>
<path d="M155.339 107.456C155.339 107.456 156.343 105.884 157.341 106.745" stroke="#263238" stroke-miterlimit="10"/>
<path d="M158.051 118.312C158.051 118.312 155.913 117.451 155.913 116.884" stroke="#263238" stroke-miterlimit="10"/>
<path d="M150.775 198.129C150.775 198.129 150.775 195.847 150.632 191.564C150.488 187.28 151.199 171.286 153.057 163.86C154.915 156.434 154.628 151.72 152.77 146.152C152.164 144.326 151.414 142.455 150.677 140.623C147.345 141.314 143.564 136.261 141.282 132.46C140.532 131.143 139.415 130.072 138.068 129.377C136.721 128.683 135.201 128.395 133.693 128.548H133.653C133.184 128.946 132.695 129.356 132.186 129.8C133.931 130.222 135.55 131.054 136.91 132.225C138.27 133.395 139.333 134.873 140.01 136.535C142.788 143.198 138.165 151.531 132.61 154.139C128.568 156.03 124.134 154.282 122.028 153.2C121.839 155.573 121.813 157.184 121.813 157.184C121.813 157.184 122.524 166.312 123.241 168.32C123.958 170.328 121.67 195.306 121.67 195.306C121.945 195.837 122.411 196.245 122.974 196.447C123.971 196.877 133.256 200.587 143.107 200.587C152.959 200.587 150.775 198.129 150.775 198.129Z" fill="#FA8A3C" stroke="#263238" stroke-miterlimit="10"/>
<path d="M134.436 131.534C134.436 131.534 127.036 131.162 123.887 135.048C120.737 138.934 105.572 162.25 104.829 164.101C104.085 165.953 105.937 168.724 105.937 168.724C105.937 168.724 129.07 189.451 129.807 189.634C130.543 189.816 134.808 194.817 136.098 195.189C137.389 195.56 141.654 194.445 142.208 193.885C142.762 193.324 145.35 190.925 144.242 189.973C143.134 189.021 142.39 188.493 142.39 187.939C142.39 187.384 142.944 185.331 140.91 184.978C138.876 184.626 132.584 184.607 132.584 184.607C132.584 184.607 129.442 180.91 125.367 175.172C123.026 171.899 120.865 168.502 118.892 164.995L135.916 148.525" fill="white"/>
<path d="M134.436 131.534C134.436 131.534 127.036 131.162 123.887 135.048C120.737 138.934 105.572 162.25 104.829 164.101C104.085 165.953 105.937 168.724 105.937 168.724C105.937 168.724 129.07 189.451 129.807 189.634C130.543 189.816 134.808 194.817 136.098 195.189C137.389 195.56 141.654 194.445 142.208 193.885C142.762 193.324 145.35 190.925 144.242 189.973C143.134 189.021 142.39 188.493 142.39 187.939C142.39 187.384 142.944 185.331 140.91 184.978C138.876 184.626 132.584 184.607 132.584 184.607C132.584 184.607 129.442 180.91 125.367 175.172C123.026 171.899 120.865 168.502 118.892 164.995L135.916 148.525" stroke="#263238" stroke-miterlimit="10"/>
</svg>
