<svg width="18" height="16" viewBox="0 0 18 16" fill="none" xmlns="http://www.w3.org/2000/svg">
<path d="M15.7023 2.20711C15.5217 1.56673 15.1469 1.00512 14.6344 0.607008C14.1218 0.208895 13.4994 -0.00413257 12.861 6.0741e-05C12.1211 0.000751359 11.4082 0.290851 10.8624 0.813332C10.3167 1.33581 9.97753 2.05288 9.9117 2.82358H8.0892C8.02247 2.05207 7.68221 1.33457 7.13529 0.812096C6.58838 0.289622 5.87437 -3.42775e-05 5.1336 6.0741e-05C4.49602 -0.00321204 3.87469 0.210264 3.3632 0.608332C2.85171 1.0064 2.47777 1.5675 2.2977 2.20711L0.0378 10.0828C0.0130436 10.1706 0.000316655 10.2615 0 10.353V11.2941C0.00142952 12.5419 0.476118 13.7381 1.31992 14.6204C2.16371 15.5026 3.30771 15.9988 4.5009 16C5.37541 15.9984 6.23057 15.7306 6.96192 15.2292C7.69328 14.7278 8.26918 14.0145 8.6193 13.1765H9.3807C9.73082 14.0145 10.3067 14.7278 11.0381 15.2292C11.7694 15.7306 12.6246 15.9984 13.4991 16C14.6924 15.9988 15.8366 15.5025 16.6804 14.62C17.5242 13.7376 17.9988 12.5411 18 11.2932V10.353C18 10.2607 17.9865 10.1704 17.9622 10.0828L15.7023 2.20711ZM4.5009 14.1177C3.78502 14.1167 3.09873 13.8189 2.59244 13.2896C2.08616 12.7604 1.80119 12.0428 1.8 11.2941C1.8 11.2226 1.8153 11.1558 1.8198 11.0852C1.86904 10.3763 2.17255 9.71303 2.66955 9.2282C3.16654 8.74337 3.82034 8.47278 4.5 8.47062C5.21608 8.47062 5.90284 8.76809 6.40919 9.29761C6.91554 9.82712 7.2 10.5453 7.2 11.2941V11.3026C7.19691 12.0495 6.91132 12.7648 6.4056 13.2922C5.89989 13.8197 5.21514 14.1164 4.5009 14.1177ZM13.4991 14.1177C12.7849 14.1164 12.1001 13.8197 11.5944 13.2922C11.0887 12.7648 10.8031 12.0495 10.8 11.3026V11.2941C10.7999 10.9233 10.8697 10.5562 11.0054 10.2136C11.141 9.871 11.3398 9.5597 11.5905 9.29747C12.0968 8.76787 12.7835 8.47027 13.4995 8.47015C14.2156 8.47002 14.9024 8.76738 15.4089 9.2968C15.9153 9.82623 16.1999 10.5444 16.2 11.2932C16.199 12.042 15.9142 12.7598 15.4079 13.2893C14.9016 13.8188 14.2151 14.1167 13.4991 14.1177Z" fill="#062540"/>
</svg>
