<svg width="18" height="17" viewBox="0 0 18 17" fill="none" xmlns="http://www.w3.org/2000/svg">
<path d="M16.2 5.36842H11.1492L12.1599 2.35584C12.3417 1.81184 12.2499 1.20879 11.9124 0.743526C11.5749 0.278263 11.0277 0 10.4508 0H9C8.7327 0 8.4798 0.118105 8.3079 0.322105L4.0779 5.36842H1.8C0.8073 5.36842 0 6.171 0 7.15789V15.2105C0 16.1974 0.8073 17 1.8 17H13.7763C14.1425 16.9988 14.4997 16.8871 14.8007 16.6798C15.1017 16.4724 15.3323 16.1791 15.462 15.8386L17.9433 9.26142C17.981 9.16096 18.0002 9.05458 18 8.94737V7.15789C18 6.171 17.1927 5.36842 16.2 5.36842ZM1.8 7.15789H3.6V15.2105H1.8V7.15789ZM16.2 8.78542L13.7763 15.2105H5.4V6.58705L9.4212 1.78947H10.4526L9.0468 5.97953C9.00116 6.11402 8.98843 6.25739 9.00967 6.39775C9.0309 6.53811 9.08549 6.67142 9.16889 6.78662C9.25231 6.90181 9.36214 6.99559 9.48928 7.06015C9.61643 7.12472 9.75723 7.15823 9.9 7.15789H16.2V8.78542Z" fill="#062540"/>
</svg>
